<?xml version="1.0" encoding="utf-8" standalone="no"?>
<!DOCTYPE svg PUBLIC "-//W3C//DTD SVG 1.1//EN"
  "http://www.w3.org/Graphics/SVG/1.1/DTD/svg11.dtd">
<svg height="288pt" version="1.1" viewBox="0 0 1080 288" width="1080pt" xmlns="http://www.w3.org/2000/svg" xmlns:xlink="http://www.w3.org/1999/xlink">
 <metadata>
  <rdf:RDF xmlns:cc="http://creativecommons.org/ns#" xmlns:dc="http://purl.org/dc/elements/1.1/" xmlns:rdf="http://www.w3.org/1999/02/22-rdf-syntax-ns#">
   <cc:Work>
    <dc:type rdf:resource="http://purl.org/dc/dcmitype/StillImage"/>
    <dc:date>2022-03-03T12:21:02.145900</dc:date>
    <dc:format>image/svg+xml</dc:format>
    <dc:creator>
     <cc:Agent>
      <dc:title>Matplotlib v3.4.3, https://matplotlib.org/</dc:title>
     </cc:Agent>
    </dc:creator>
   </cc:Work>
  </rdf:RDF>
 </metadata>
 <defs>
  <style type="text/css">*{stroke-linecap:butt;stroke-linejoin:round;}</style>
 </defs>
 <g id="figure_1">
  <g id="patch_1">
   <path d="M 0 288 
L 1080 288 
L 1080 0 
L 0 0 
z
" style="fill:#f0f0f0;"/>
  </g>
  <g id="axes_1">
   <g id="patch_2">
    <path d="M 34.62 255.833125 
L 1064.88 255.833125 
L 1064.88 44.24 
L 34.62 44.24 
z
" style="fill:#f0f0f0;"/>
   </g>
   <g id="matplotlib.axis_1">
    <g id="xtick_1">
     <g id="text_1">
      <!-- Knee -->
      <g style="fill:#262626;" transform="translate(107.630781 270.706719)scale(0.11 -0.11)">
       <defs>
        <path d="M 469 0 
L 469 4581 
L 1075 4581 
L 1075 2309 
L 3350 4581 
L 4172 4581 
L 2250 2725 
L 4256 0 
L 3456 0 
L 1825 2319 
L 1075 1588 
L 1075 0 
L 469 0 
z
" id="ArialMT-4b" transform="scale(0.015625)"/>
        <path d="M 422 0 
L 422 3319 
L 928 3319 
L 928 2847 
Q 1294 3394 1984 3394 
Q 2284 3394 2536 3286 
Q 2788 3178 2913 3003 
Q 3038 2828 3088 2588 
Q 3119 2431 3119 2041 
L 3119 0 
L 2556 0 
L 2556 2019 
Q 2556 2363 2490 2533 
Q 2425 2703 2258 2804 
Q 2091 2906 1866 2906 
Q 1506 2906 1245 2678 
Q 984 2450 984 1813 
L 984 0 
L 422 0 
z
" id="ArialMT-6e" transform="scale(0.015625)"/>
        <path d="M 2694 1069 
L 3275 997 
Q 3138 488 2766 206 
Q 2394 -75 1816 -75 
Q 1088 -75 661 373 
Q 234 822 234 1631 
Q 234 2469 665 2931 
Q 1097 3394 1784 3394 
Q 2450 3394 2872 2941 
Q 3294 2488 3294 1666 
Q 3294 1616 3291 1516 
L 816 1516 
Q 847 969 1125 678 
Q 1403 388 1819 388 
Q 2128 388 2347 550 
Q 2566 713 2694 1069 
z
M 847 1978 
L 2700 1978 
Q 2663 2397 2488 2606 
Q 2219 2931 1791 2931 
Q 1403 2931 1139 2672 
Q 875 2413 847 1978 
z
" id="ArialMT-65" transform="scale(0.015625)"/>
       </defs>
       <use xlink:href="#ArialMT-4b"/>
       <use x="66.699219" xlink:href="#ArialMT-6e"/>
       <use x="122.314453" xlink:href="#ArialMT-65"/>
       <use x="177.929688" xlink:href="#ArialMT-65"/>
      </g>
     </g>
    </g>
    <g id="xtick_2">
     <g id="text_2">
      <!-- Ankle -->
      <g style="fill:#262626;" transform="translate(278.427266 270.706719)scale(0.11 -0.11)">
       <defs>
        <path d="M -9 0 
L 1750 4581 
L 2403 4581 
L 4278 0 
L 3588 0 
L 3053 1388 
L 1138 1388 
L 634 0 
L -9 0 
z
M 1313 1881 
L 2866 1881 
L 2388 3150 
Q 2169 3728 2063 4100 
Q 1975 3659 1816 3225 
L 1313 1881 
z
" id="ArialMT-41" transform="scale(0.015625)"/>
        <path d="M 425 0 
L 425 4581 
L 988 4581 
L 988 1969 
L 2319 3319 
L 3047 3319 
L 1778 2088 
L 3175 0 
L 2481 0 
L 1384 1697 
L 988 1316 
L 988 0 
L 425 0 
z
" id="ArialMT-6b" transform="scale(0.015625)"/>
        <path d="M 409 0 
L 409 4581 
L 972 4581 
L 972 0 
L 409 0 
z
" id="ArialMT-6c" transform="scale(0.015625)"/>
       </defs>
       <use xlink:href="#ArialMT-41"/>
       <use x="66.699219" xlink:href="#ArialMT-6e"/>
       <use x="122.314453" xlink:href="#ArialMT-6b"/>
       <use x="172.314453" xlink:href="#ArialMT-6c"/>
       <use x="194.53125" xlink:href="#ArialMT-65"/>
      </g>
     </g>
    </g>
    <g id="xtick_3">
     <g id="text_3">
      <!-- Biceps -->
      <g style="fill:#262626;" transform="translate(447.387266 270.706719)scale(0.11 -0.11)">
       <defs>
        <path d="M 469 0 
L 469 4581 
L 2188 4581 
Q 2713 4581 3030 4442 
Q 3347 4303 3526 4014 
Q 3706 3725 3706 3409 
Q 3706 3116 3547 2856 
Q 3388 2597 3066 2438 
Q 3481 2316 3704 2022 
Q 3928 1728 3928 1328 
Q 3928 1006 3792 729 
Q 3656 453 3456 303 
Q 3256 153 2954 76 
Q 2653 0 2216 0 
L 469 0 
z
M 1075 2656 
L 2066 2656 
Q 2469 2656 2644 2709 
Q 2875 2778 2992 2937 
Q 3109 3097 3109 3338 
Q 3109 3566 3000 3739 
Q 2891 3913 2687 3977 
Q 2484 4041 1991 4041 
L 1075 4041 
L 1075 2656 
z
M 1075 541 
L 2216 541 
Q 2509 541 2628 563 
Q 2838 600 2978 687 
Q 3119 775 3209 942 
Q 3300 1109 3300 1328 
Q 3300 1584 3169 1773 
Q 3038 1963 2805 2039 
Q 2572 2116 2134 2116 
L 1075 2116 
L 1075 541 
z
" id="ArialMT-42" transform="scale(0.015625)"/>
        <path d="M 425 3934 
L 425 4581 
L 988 4581 
L 988 3934 
L 425 3934 
z
M 425 0 
L 425 3319 
L 988 3319 
L 988 0 
L 425 0 
z
" id="ArialMT-69" transform="scale(0.015625)"/>
        <path d="M 2588 1216 
L 3141 1144 
Q 3050 572 2676 248 
Q 2303 -75 1759 -75 
Q 1078 -75 664 370 
Q 250 816 250 1647 
Q 250 2184 428 2587 
Q 606 2991 970 3192 
Q 1334 3394 1763 3394 
Q 2303 3394 2647 3120 
Q 2991 2847 3088 2344 
L 2541 2259 
Q 2463 2594 2264 2762 
Q 2066 2931 1784 2931 
Q 1359 2931 1093 2626 
Q 828 2322 828 1663 
Q 828 994 1084 691 
Q 1341 388 1753 388 
Q 2084 388 2306 591 
Q 2528 794 2588 1216 
z
" id="ArialMT-63" transform="scale(0.015625)"/>
        <path d="M 422 -1272 
L 422 3319 
L 934 3319 
L 934 2888 
Q 1116 3141 1344 3267 
Q 1572 3394 1897 3394 
Q 2322 3394 2647 3175 
Q 2972 2956 3137 2557 
Q 3303 2159 3303 1684 
Q 3303 1175 3120 767 
Q 2938 359 2589 142 
Q 2241 -75 1856 -75 
Q 1575 -75 1351 44 
Q 1128 163 984 344 
L 984 -1272 
L 422 -1272 
z
M 931 1641 
Q 931 1000 1190 694 
Q 1450 388 1819 388 
Q 2194 388 2461 705 
Q 2728 1022 2728 1688 
Q 2728 2322 2467 2637 
Q 2206 2953 1844 2953 
Q 1484 2953 1207 2617 
Q 931 2281 931 1641 
z
" id="ArialMT-70" transform="scale(0.015625)"/>
        <path d="M 197 991 
L 753 1078 
Q 800 744 1014 566 
Q 1228 388 1613 388 
Q 2000 388 2187 545 
Q 2375 703 2375 916 
Q 2375 1106 2209 1216 
Q 2094 1291 1634 1406 
Q 1016 1563 777 1677 
Q 538 1791 414 1992 
Q 291 2194 291 2438 
Q 291 2659 392 2848 
Q 494 3038 669 3163 
Q 800 3259 1026 3326 
Q 1253 3394 1513 3394 
Q 1903 3394 2198 3281 
Q 2494 3169 2634 2976 
Q 2775 2784 2828 2463 
L 2278 2388 
Q 2241 2644 2061 2787 
Q 1881 2931 1553 2931 
Q 1166 2931 1000 2803 
Q 834 2675 834 2503 
Q 834 2394 903 2306 
Q 972 2216 1119 2156 
Q 1203 2125 1616 2013 
Q 2213 1853 2448 1751 
Q 2684 1650 2818 1456 
Q 2953 1263 2953 975 
Q 2953 694 2789 445 
Q 2625 197 2315 61 
Q 2006 -75 1616 -75 
Q 969 -75 630 194 
Q 291 463 197 991 
z
" id="ArialMT-73" transform="scale(0.015625)"/>
       </defs>
       <use xlink:href="#ArialMT-42"/>
       <use x="66.699219" xlink:href="#ArialMT-69"/>
       <use x="88.916016" xlink:href="#ArialMT-63"/>
       <use x="138.916016" xlink:href="#ArialMT-65"/>
       <use x="194.53125" xlink:href="#ArialMT-70"/>
       <use x="250.146484" xlink:href="#ArialMT-73"/>
      </g>
     </g>
    </g>
    <g id="xtick_4">
     <g id="text_4">
      <!-- Forearm -->
      <g style="fill:#262626;" transform="translate(614.826172 270.706719)scale(0.11 -0.11)">
       <defs>
        <path d="M 525 0 
L 525 4581 
L 3616 4581 
L 3616 4041 
L 1131 4041 
L 1131 2622 
L 3281 2622 
L 3281 2081 
L 1131 2081 
L 1131 0 
L 525 0 
z
" id="ArialMT-46" transform="scale(0.015625)"/>
        <path d="M 213 1659 
Q 213 2581 725 3025 
Q 1153 3394 1769 3394 
Q 2453 3394 2887 2945 
Q 3322 2497 3322 1706 
Q 3322 1066 3130 698 
Q 2938 331 2570 128 
Q 2203 -75 1769 -75 
Q 1072 -75 642 372 
Q 213 819 213 1659 
z
M 791 1659 
Q 791 1022 1069 705 
Q 1347 388 1769 388 
Q 2188 388 2466 706 
Q 2744 1025 2744 1678 
Q 2744 2294 2464 2611 
Q 2184 2928 1769 2928 
Q 1347 2928 1069 2612 
Q 791 2297 791 1659 
z
" id="ArialMT-6f" transform="scale(0.015625)"/>
        <path d="M 416 0 
L 416 3319 
L 922 3319 
L 922 2816 
Q 1116 3169 1280 3281 
Q 1444 3394 1641 3394 
Q 1925 3394 2219 3213 
L 2025 2691 
Q 1819 2813 1613 2813 
Q 1428 2813 1281 2702 
Q 1134 2591 1072 2394 
Q 978 2094 978 1738 
L 978 0 
L 416 0 
z
" id="ArialMT-72" transform="scale(0.015625)"/>
        <path d="M 2588 409 
Q 2275 144 1986 34 
Q 1697 -75 1366 -75 
Q 819 -75 525 192 
Q 231 459 231 875 
Q 231 1119 342 1320 
Q 453 1522 633 1644 
Q 813 1766 1038 1828 
Q 1203 1872 1538 1913 
Q 2219 1994 2541 2106 
Q 2544 2222 2544 2253 
Q 2544 2597 2384 2738 
Q 2169 2928 1744 2928 
Q 1347 2928 1158 2789 
Q 969 2650 878 2297 
L 328 2372 
Q 403 2725 575 2942 
Q 747 3159 1072 3276 
Q 1397 3394 1825 3394 
Q 2250 3394 2515 3294 
Q 2781 3194 2906 3042 
Q 3031 2891 3081 2659 
Q 3109 2516 3109 2141 
L 3109 1391 
Q 3109 606 3145 398 
Q 3181 191 3288 0 
L 2700 0 
Q 2613 175 2588 409 
z
M 2541 1666 
Q 2234 1541 1622 1453 
Q 1275 1403 1131 1340 
Q 988 1278 909 1158 
Q 831 1038 831 891 
Q 831 666 1001 516 
Q 1172 366 1500 366 
Q 1825 366 2078 508 
Q 2331 650 2450 897 
Q 2541 1088 2541 1459 
L 2541 1666 
z
" id="ArialMT-61" transform="scale(0.015625)"/>
        <path d="M 422 0 
L 422 3319 
L 925 3319 
L 925 2853 
Q 1081 3097 1340 3245 
Q 1600 3394 1931 3394 
Q 2300 3394 2536 3241 
Q 2772 3088 2869 2813 
Q 3263 3394 3894 3394 
Q 4388 3394 4653 3120 
Q 4919 2847 4919 2278 
L 4919 0 
L 4359 0 
L 4359 2091 
Q 4359 2428 4304 2576 
Q 4250 2725 4106 2815 
Q 3963 2906 3769 2906 
Q 3419 2906 3187 2673 
Q 2956 2441 2956 1928 
L 2956 0 
L 2394 0 
L 2394 2156 
Q 2394 2531 2256 2718 
Q 2119 2906 1806 2906 
Q 1569 2906 1367 2781 
Q 1166 2656 1075 2415 
Q 984 2175 984 1722 
L 984 0 
L 422 0 
z
" id="ArialMT-6d" transform="scale(0.015625)"/>
       </defs>
       <use xlink:href="#ArialMT-46"/>
       <use x="61.083984" xlink:href="#ArialMT-6f"/>
       <use x="116.699219" xlink:href="#ArialMT-72"/>
       <use x="150" xlink:href="#ArialMT-65"/>
       <use x="205.615234" xlink:href="#ArialMT-61"/>
       <use x="261.230469" xlink:href="#ArialMT-72"/>
       <use x="294.53125" xlink:href="#ArialMT-6d"/>
      </g>
     </g>
    </g>
    <g id="xtick_5">
     <g id="text_5">
      <!-- Wrist -->
      <g style="fill:#262626;" transform="translate(794.888437 270.706719)scale(0.11 -0.11)">
       <defs>
        <path d="M 1294 0 
L 78 4581 
L 700 4581 
L 1397 1578 
Q 1509 1106 1591 641 
Q 1766 1375 1797 1488 
L 2669 4581 
L 3400 4581 
L 4056 2263 
Q 4303 1400 4413 641 
Q 4500 1075 4641 1638 
L 5359 4581 
L 5969 4581 
L 4713 0 
L 4128 0 
L 3163 3491 
Q 3041 3928 3019 4028 
Q 2947 3713 2884 3491 
L 1913 0 
L 1294 0 
z
" id="ArialMT-57" transform="scale(0.015625)"/>
        <path d="M 1650 503 
L 1731 6 
Q 1494 -44 1306 -44 
Q 1000 -44 831 53 
Q 663 150 594 308 
Q 525 466 525 972 
L 525 2881 
L 113 2881 
L 113 3319 
L 525 3319 
L 525 4141 
L 1084 4478 
L 1084 3319 
L 1650 3319 
L 1650 2881 
L 1084 2881 
L 1084 941 
Q 1084 700 1114 631 
Q 1144 563 1211 522 
Q 1278 481 1403 481 
Q 1497 481 1650 503 
z
" id="ArialMT-74" transform="scale(0.015625)"/>
       </defs>
       <use xlink:href="#ArialMT-57"/>
       <use x="92.634766" xlink:href="#ArialMT-72"/>
       <use x="125.935547" xlink:href="#ArialMT-69"/>
       <use x="148.152344" xlink:href="#ArialMT-73"/>
       <use x="198.152344" xlink:href="#ArialMT-74"/>
      </g>
     </g>
    </g>
    <g id="xtick_6">
     <g id="text_6">
      <!-- BodyFat -->
      <g style="fill:#262626;" transform="translate(958.543516 270.706719)scale(0.11 -0.11)">
       <defs>
        <path d="M 2575 0 
L 2575 419 
Q 2259 -75 1647 -75 
Q 1250 -75 917 144 
Q 584 363 401 755 
Q 219 1147 219 1656 
Q 219 2153 384 2558 
Q 550 2963 881 3178 
Q 1213 3394 1622 3394 
Q 1922 3394 2156 3267 
Q 2391 3141 2538 2938 
L 2538 4581 
L 3097 4581 
L 3097 0 
L 2575 0 
z
M 797 1656 
Q 797 1019 1065 703 
Q 1334 388 1700 388 
Q 2069 388 2326 689 
Q 2584 991 2584 1609 
Q 2584 2291 2321 2609 
Q 2059 2928 1675 2928 
Q 1300 2928 1048 2622 
Q 797 2316 797 1656 
z
" id="ArialMT-64" transform="scale(0.015625)"/>
        <path d="M 397 -1278 
L 334 -750 
Q 519 -800 656 -800 
Q 844 -800 956 -737 
Q 1069 -675 1141 -563 
Q 1194 -478 1313 -144 
Q 1328 -97 1363 -6 
L 103 3319 
L 709 3319 
L 1400 1397 
Q 1534 1031 1641 628 
Q 1738 1016 1872 1384 
L 2581 3319 
L 3144 3319 
L 1881 -56 
Q 1678 -603 1566 -809 
Q 1416 -1088 1222 -1217 
Q 1028 -1347 759 -1347 
Q 597 -1347 397 -1278 
z
" id="ArialMT-79" transform="scale(0.015625)"/>
       </defs>
       <use xlink:href="#ArialMT-42"/>
       <use x="66.699219" xlink:href="#ArialMT-6f"/>
       <use x="122.314453" xlink:href="#ArialMT-64"/>
       <use x="177.929688" xlink:href="#ArialMT-79"/>
       <use x="227.929688" xlink:href="#ArialMT-46"/>
       <use x="289.013672" xlink:href="#ArialMT-61"/>
       <use x="344.628906" xlink:href="#ArialMT-74"/>
      </g>
     </g>
    </g>
   </g>
   <g id="matplotlib.axis_2">
    <g id="ytick_1">
     <g id="line2d_1">
      <path clip-path="url(#pbe14d72679)" d="M 34.62 238.603688 
L 1064.88 238.603688 
" style="fill:none;stroke:#cbcbcb;"/>
     </g>
     <g id="text_7">
      <!-- −4 -->
      <g style="fill:#262626;" transform="translate(15.078281 242.540485)scale(0.11 -0.11)">
       <defs>
        <path d="M 3381 1997 
L 356 1997 
L 356 2522 
L 3381 2522 
L 3381 1997 
z
" id="ArialMT-2212" transform="scale(0.015625)"/>
        <path d="M 2069 0 
L 2069 1097 
L 81 1097 
L 81 1613 
L 2172 4581 
L 2631 4581 
L 2631 1613 
L 3250 1613 
L 3250 1097 
L 2631 1097 
L 2631 0 
L 2069 0 
z
M 2069 1613 
L 2069 3678 
L 634 1613 
L 2069 1613 
z
" id="ArialMT-34" transform="scale(0.015625)"/>
       </defs>
       <use xlink:href="#ArialMT-2212"/>
       <use x="58.398438" xlink:href="#ArialMT-34"/>
      </g>
     </g>
    </g>
    <g id="ytick_2">
     <g id="line2d_2">
      <path clip-path="url(#pbe14d72679)" d="M 34.62 205.112529 
L 1064.88 205.112529 
" style="fill:none;stroke:#cbcbcb;"/>
     </g>
     <g id="text_8">
      <!-- −2 -->
      <g style="fill:#262626;" transform="translate(15.078281 209.049325)scale(0.11 -0.11)">
       <defs>
        <path d="M 3222 541 
L 3222 0 
L 194 0 
Q 188 203 259 391 
Q 375 700 629 1000 
Q 884 1300 1366 1694 
Q 2113 2306 2375 2664 
Q 2638 3022 2638 3341 
Q 2638 3675 2398 3904 
Q 2159 4134 1775 4134 
Q 1369 4134 1125 3890 
Q 881 3647 878 3216 
L 300 3275 
Q 359 3922 746 4261 
Q 1134 4600 1788 4600 
Q 2447 4600 2831 4234 
Q 3216 3869 3216 3328 
Q 3216 3053 3103 2787 
Q 2991 2522 2730 2228 
Q 2469 1934 1863 1422 
Q 1356 997 1212 845 
Q 1069 694 975 541 
L 3222 541 
z
" id="ArialMT-32" transform="scale(0.015625)"/>
       </defs>
       <use xlink:href="#ArialMT-2212"/>
       <use x="58.398438" xlink:href="#ArialMT-32"/>
      </g>
     </g>
    </g>
    <g id="ytick_3">
     <g id="line2d_3">
      <path clip-path="url(#pbe14d72679)" d="M 34.62 171.621369 
L 1064.88 171.621369 
" style="fill:none;stroke:#cbcbcb;"/>
     </g>
     <g id="text_9">
      <!-- 0 -->
      <g style="fill:#262626;" transform="translate(21.502969 175.558166)scale(0.11 -0.11)">
       <defs>
        <path d="M 266 2259 
Q 266 3072 433 3567 
Q 600 4063 929 4331 
Q 1259 4600 1759 4600 
Q 2128 4600 2406 4451 
Q 2684 4303 2865 4023 
Q 3047 3744 3150 3342 
Q 3253 2941 3253 2259 
Q 3253 1453 3087 958 
Q 2922 463 2592 192 
Q 2263 -78 1759 -78 
Q 1097 -78 719 397 
Q 266 969 266 2259 
z
M 844 2259 
Q 844 1131 1108 757 
Q 1372 384 1759 384 
Q 2147 384 2411 759 
Q 2675 1134 2675 2259 
Q 2675 3391 2411 3762 
Q 2147 4134 1753 4134 
Q 1366 4134 1134 3806 
Q 844 3388 844 2259 
z
" id="ArialMT-30" transform="scale(0.015625)"/>
       </defs>
       <use xlink:href="#ArialMT-30"/>
      </g>
     </g>
    </g>
    <g id="ytick_4">
     <g id="line2d_4">
      <path clip-path="url(#pbe14d72679)" d="M 34.62 138.13021 
L 1064.88 138.13021 
" style="fill:none;stroke:#cbcbcb;"/>
     </g>
     <g id="text_10">
      <!-- 2 -->
      <g style="fill:#262626;" transform="translate(21.502969 142.067007)scale(0.11 -0.11)">
       <use xlink:href="#ArialMT-32"/>
      </g>
     </g>
    </g>
    <g id="ytick_5">
     <g id="line2d_5">
      <path clip-path="url(#pbe14d72679)" d="M 34.62 104.639051 
L 1064.88 104.639051 
" style="fill:none;stroke:#cbcbcb;"/>
     </g>
     <g id="text_11">
      <!-- 4 -->
      <g style="fill:#262626;" transform="translate(21.502969 108.575848)scale(0.11 -0.11)">
       <use xlink:href="#ArialMT-34"/>
      </g>
     </g>
    </g>
    <g id="ytick_6">
     <g id="line2d_6">
      <path clip-path="url(#pbe14d72679)" d="M 34.62 71.147892 
L 1064.88 71.147892 
" style="fill:none;stroke:#cbcbcb;"/>
     </g>
     <g id="text_12">
      <!-- 6 -->
      <g style="fill:#262626;" transform="translate(21.502969 75.084689)scale(0.11 -0.11)">
       <defs>
        <path d="M 3184 3459 
L 2625 3416 
Q 2550 3747 2413 3897 
Q 2184 4138 1850 4138 
Q 1581 4138 1378 3988 
Q 1113 3794 959 3422 
Q 806 3050 800 2363 
Q 1003 2672 1297 2822 
Q 1591 2972 1913 2972 
Q 2475 2972 2870 2558 
Q 3266 2144 3266 1488 
Q 3266 1056 3080 686 
Q 2894 316 2569 119 
Q 2244 -78 1831 -78 
Q 1128 -78 684 439 
Q 241 956 241 2144 
Q 241 3472 731 4075 
Q 1159 4600 1884 4600 
Q 2425 4600 2770 4297 
Q 3116 3994 3184 3459 
z
M 888 1484 
Q 888 1194 1011 928 
Q 1134 663 1356 523 
Q 1578 384 1822 384 
Q 2178 384 2434 671 
Q 2691 959 2691 1453 
Q 2691 1928 2437 2201 
Q 2184 2475 1800 2475 
Q 1419 2475 1153 2201 
Q 888 1928 888 1484 
z
" id="ArialMT-36" transform="scale(0.015625)"/>
       </defs>
       <use xlink:href="#ArialMT-36"/>
      </g>
     </g>
    </g>
   </g>
   <g id="PolyCollection_1">
    <defs>
     <path d="M 120.651552 -66.480165 
L 120.298448 -66.480165 
L 120.174501 -67.833203 
L 119.98803 -69.186241 
L 119.722068 -70.539279 
L 119.361256 -71.892316 
L 118.893338 -73.245354 
L 118.309035 -74.598392 
L 117.599649 -75.95143 
L 116.752845 -77.304467 
L 115.748412 -78.657505 
L 114.556739 -80.010543 
L 113.142343 -81.36358 
L 111.472886 -82.716618 
L 109.531236 -84.069656 
L 107.325918 -85.422694 
L 104.895086 -86.775731 
L 102.301704 -88.128769 
L 99.621565 -89.481807 
L 96.929123 -90.834845 
L 94.286555 -92.187882 
L 91.738888 -93.54092 
L 89.313872 -94.893958 
L 87.022523 -96.246996 
L 84.856746 -97.600033 
L 82.783894 -98.953071 
L 80.742321 -100.306109 
L 78.643839 -101.659146 
L 76.387174 -103.012184 
L 73.88179 -104.365222 
L 71.07632 -105.71826 
L 67.983085 -107.071297 
L 64.690804 -108.424335 
L 61.361154 -109.777373 
L 58.209517 -111.130411 
L 55.474381 -112.483448 
L 53.382324 -113.836486 
L 52.115983 -115.189524 
L 51.791 -116.542562 
L 52.445231 -117.895599 
L 54.040365 -119.248637 
L 56.473431 -120.601675 
L 59.594333 -121.954712 
L 63.22549 -123.30775 
L 67.180643 -124.660788 
L 71.280925 -126.013826 
L 75.367138 -127.366863 
L 79.307591 -128.719901 
L 83.001336 -130.072939 
L 86.377438 -131.425977 
L 89.391955 -132.779014 
L 92.024981 -134.132052 
L 94.279682 -135.48509 
L 96.183542 -136.838127 
L 97.789786 -138.191165 
L 99.175517 -139.544203 
L 100.433728 -140.897241 
L 101.65904 -142.250278 
L 102.930471 -143.603316 
L 104.296721 -144.956354 
L 105.768995 -146.309392 
L 107.323497 -147.662429 
L 108.9119 -149.015467 
L 110.475474 -150.368505 
L 111.958127 -151.721543 
L 113.315213 -153.07458 
L 114.517353 -154.427618 
L 115.550347 -155.780656 
L 116.412963 -157.133693 
L 117.114109 -158.486731 
L 117.670197 -159.839769 
L 118.10286 -161.192807 
L 118.43689 -162.545844 
L 118.698161 -163.898882 
L 118.911396 -165.25192 
L 119.097839 -166.604958 
L 119.273138 -167.957995 
L 119.445947 -169.311033 
L 119.617733 -170.664071 
L 119.78394 -172.017109 
L 119.936233 -173.370146 
L 120.065097 -174.723184 
L 120.162076 -176.076222 
L 120.221185 -177.429259 
L 120.239551 -178.782297 
L 120.217666 -180.135335 
L 120.159644 -181.488373 
L 120.073572 -182.84141 
L 119.971589 -184.194448 
L 119.869131 -185.547486 
L 119.782961 -186.900524 
L 119.728149 -188.253561 
L 119.7148 -189.606599 
L 119.745682 -190.959637 
L 119.815694 -192.312674 
L 119.913445 -193.665712 
L 120.024373 -195.01875 
L 120.134314 -196.371788 
L 120.232339 -197.724825 
L 120.312162 -199.077863 
L 120.372052 -200.430901 
L 120.577948 -200.430901 
L 120.577948 -200.430901 
L 120.637838 -199.077863 
L 120.717661 -197.724825 
L 120.815686 -196.371788 
L 120.925627 -195.01875 
L 121.036555 -193.665712 
L 121.134306 -192.312674 
L 121.204318 -190.959637 
L 121.2352 -189.606599 
L 121.221851 -188.253561 
L 121.167039 -186.900524 
L 121.080869 -185.547486 
L 120.978411 -184.194448 
L 120.876428 -182.84141 
L 120.790356 -181.488373 
L 120.732334 -180.135335 
L 120.710449 -178.782297 
L 120.728815 -177.429259 
L 120.787924 -176.076222 
L 120.884903 -174.723184 
L 121.013767 -173.370146 
L 121.16606 -172.017109 
L 121.332267 -170.664071 
L 121.504053 -169.311033 
L 121.676862 -167.957995 
L 121.852161 -166.604958 
L 122.038604 -165.25192 
L 122.251839 -163.898882 
L 122.51311 -162.545844 
L 122.84714 -161.192807 
L 123.279803 -159.839769 
L 123.835891 -158.486731 
L 124.537037 -157.133693 
L 125.399653 -155.780656 
L 126.432647 -154.427618 
L 127.634787 -153.07458 
L 128.991873 -151.721543 
L 130.474526 -150.368505 
L 132.0381 -149.015467 
L 133.626503 -147.662429 
L 135.181005 -146.309392 
L 136.653279 -144.956354 
L 138.019529 -143.603316 
L 139.29096 -142.250278 
L 140.516272 -140.897241 
L 141.774483 -139.544203 
L 143.160214 -138.191165 
L 144.766458 -136.838127 
L 146.670318 -135.48509 
L 148.925019 -134.132052 
L 151.558045 -132.779014 
L 154.572562 -131.425977 
L 157.948664 -130.072939 
L 161.642409 -128.719901 
L 165.582862 -127.366863 
L 169.669075 -126.013826 
L 173.769357 -124.660788 
L 177.72451 -123.30775 
L 181.355667 -121.954712 
L 184.476569 -120.601675 
L 186.909635 -119.248637 
L 188.504769 -117.895599 
L 189.159 -116.542562 
L 188.834017 -115.189524 
L 187.567676 -113.836486 
L 185.475619 -112.483448 
L 182.740483 -111.130411 
L 179.588846 -109.777373 
L 176.259196 -108.424335 
L 172.966915 -107.071297 
L 169.87368 -105.71826 
L 167.06821 -104.365222 
L 164.562826 -103.012184 
L 162.306161 -101.659146 
L 160.207679 -100.306109 
L 158.166106 -98.953071 
L 156.093254 -97.600033 
L 153.927477 -96.246996 
L 151.636128 -94.893958 
L 149.211112 -93.54092 
L 146.663445 -92.187882 
L 144.020877 -90.834845 
L 141.328435 -89.481807 
L 138.648296 -88.128769 
L 136.054914 -86.775731 
L 133.624082 -85.422694 
L 131.418764 -84.069656 
L 129.477114 -82.716618 
L 127.807657 -81.36358 
L 126.393261 -80.010543 
L 125.201588 -78.657505 
L 124.197155 -77.304467 
L 123.350351 -75.95143 
L 122.640965 -74.598392 
L 122.056662 -73.245354 
L 121.588744 -71.892316 
L 121.227932 -70.539279 
L 120.96197 -69.186241 
L 120.775499 -67.833203 
L 120.651552 -66.480165 
z
" id="m9425cdbc8f" style="stroke:#2b2b2b;stroke-width:3;"/>
    </defs>
    <g clip-path="url(#pbe14d72679)">
     <use style="fill:#1b86ba;stroke:#2b2b2b;stroke-width:3;" x="0" xlink:href="#m9425cdbc8f" y="288"/>
    </g>
   </g>
   <g id="PolyCollection_2">
    <defs>
     <path d="M 292.283137 -65.752215 
L 292.086863 -65.752215 
L 292.006502 -67.453123 
L 291.885361 -69.154031 
L 291.717785 -70.854939 
L 291.502132 -72.555848 
L 291.237954 -74.256756 
L 290.91983 -75.957664 
L 290.530656 -77.658572 
L 290.038545 -79.359481 
L 289.399654 -81.060389 
L 288.56487 -82.761297 
L 287.48433 -84.462205 
L 286.10358 -86.163114 
L 284.350059 -87.864022 
L 282.116418 -89.56493 
L 279.253762 -91.265838 
L 275.588801 -92.966747 
L 270.971631 -94.667655 
L 265.346226 -96.368563 
L 258.819082 -98.069471 
L 251.692894 -99.77038 
L 244.441049 -101.471288 
L 237.624915 -103.172196 
L 231.784556 -104.873104 
L 227.344129 -106.574012 
L 224.55847 -108.274921 
L 223.501 -109.975829 
L 224.0776 -111.676737 
L 226.054448 -113.377645 
L 229.09782 -115.078554 
L 232.825081 -116.779462 
L 236.858119 -118.48037 
L 240.86598 -120.181278 
L 244.590849 -121.882187 
L 247.864253 -123.583095 
L 250.624451 -125.284003 
L 252.934557 -126.984911 
L 254.983175 -128.68582 
L 257.044316 -130.386728 
L 259.392756 -132.087636 
L 262.204507 -133.788544 
L 265.491495 -135.489453 
L 269.10473 -137.190361 
L 272.800005 -138.891269 
L 276.326137 -140.592177 
L 279.4922 -142.293086 
L 282.19369 -143.993994 
L 284.404843 -145.694902 
L 286.156256 -147.39581 
L 287.512417 -149.096719 
L 288.553621 -150.797627 
L 289.361039 -152.498535 
L 290.004148 -154.199443 
L 290.532266 -155.900352 
L 290.972633 -157.60126 
L 291.335264 -159.302168 
L 291.621701 -161.003076 
L 291.833221 -162.703984 
L 291.975062 -164.404893 
L 292.05601 -166.105801 
L 292.085288 -167.806709 
L 292.069768 -169.507617 
L 292.013876 -171.208526 
L 291.922674 -172.909434 
L 291.806464 -174.610342 
L 291.683785 -176.31125 
L 291.579834 -178.012159 
L 291.519711 -179.713067 
L 291.519303 -181.413975 
L 291.57877 -183.114883 
L 291.68256 -184.815792 
L 291.806022 -186.5167 
L 291.924848 -188.217608 
L 292.022474 -189.918516 
L 292.092593 -191.619425 
L 292.137182 -193.320333 
L 292.162471 -195.021241 
L 292.175299 -196.722149 
L 292.181044 -198.423058 
L 292.183009 -200.123966 
L 292.182527 -201.824874 
L 292.179074 -203.525782 
L 292.169943 -205.226691 
L 292.149488 -206.927599 
L 292.108456 -208.628507 
L 292.034447 -210.329415 
L 291.914796 -212.030324 
L 291.742462 -213.731232 
L 291.523539 -215.43214 
L 291.282634 -217.133048 
L 291.061398 -218.833956 
L 290.907942 -220.534865 
L 290.860083 -222.235773 
L 290.930272 -223.936681 
L 291.100353 -225.637589 
L 291.329158 -227.338498 
L 291.568626 -229.039406 
L 291.77985 -230.740314 
L 291.941962 -232.441222 
L 292.051961 -234.142131 
L 292.318039 -234.142131 
L 292.318039 -234.142131 
L 292.428038 -232.441222 
L 292.59015 -230.740314 
L 292.801374 -229.039406 
L 293.040842 -227.338498 
L 293.269647 -225.637589 
L 293.439728 -223.936681 
L 293.509917 -222.235773 
L 293.462058 -220.534865 
L 293.308602 -218.833956 
L 293.087366 -217.133048 
L 292.846461 -215.43214 
L 292.627538 -213.731232 
L 292.455204 -212.030324 
L 292.335553 -210.329415 
L 292.261544 -208.628507 
L 292.220512 -206.927599 
L 292.200057 -205.226691 
L 292.190926 -203.525782 
L 292.187473 -201.824874 
L 292.186991 -200.123966 
L 292.188956 -198.423058 
L 292.194701 -196.722149 
L 292.207529 -195.021241 
L 292.232818 -193.320333 
L 292.277407 -191.619425 
L 292.347526 -189.918516 
L 292.445152 -188.217608 
L 292.563978 -186.5167 
L 292.68744 -184.815792 
L 292.79123 -183.114883 
L 292.850697 -181.413975 
L 292.850289 -179.713067 
L 292.790166 -178.012159 
L 292.686215 -176.31125 
L 292.563536 -174.610342 
L 292.447326 -172.909434 
L 292.356124 -171.208526 
L 292.300232 -169.507617 
L 292.284712 -167.806709 
L 292.31399 -166.105801 
L 292.394938 -164.404893 
L 292.536779 -162.703984 
L 292.748299 -161.003076 
L 293.034736 -159.302168 
L 293.397367 -157.60126 
L 293.837734 -155.900352 
L 294.365852 -154.199443 
L 295.008961 -152.498535 
L 295.816379 -150.797627 
L 296.857583 -149.096719 
L 298.213744 -147.39581 
L 299.965157 -145.694902 
L 302.17631 -143.993994 
L 304.8778 -142.293086 
L 308.043863 -140.592177 
L 311.569995 -138.891269 
L 315.26527 -137.190361 
L 318.878505 -135.489453 
L 322.165493 -133.788544 
L 324.977244 -132.087636 
L 327.325684 -130.386728 
L 329.386825 -128.68582 
L 331.435443 -126.984911 
L 333.745549 -125.284003 
L 336.505747 -123.583095 
L 339.779151 -121.882187 
L 343.50402 -120.181278 
L 347.511881 -118.48037 
L 351.544919 -116.779462 
L 355.27218 -115.078554 
L 358.315552 -113.377645 
L 360.2924 -111.676737 
L 360.869 -109.975829 
L 359.81153 -108.274921 
L 357.025871 -106.574012 
L 352.585444 -104.873104 
L 346.745085 -103.172196 
L 339.928951 -101.471288 
L 332.677106 -99.77038 
L 325.550918 -98.069471 
L 319.023774 -96.368563 
L 313.398369 -94.667655 
L 308.781199 -92.966747 
L 305.116238 -91.265838 
L 302.253582 -89.56493 
L 300.019941 -87.864022 
L 298.26642 -86.163114 
L 296.88567 -84.462205 
L 295.80513 -82.761297 
L 294.970346 -81.060389 
L 294.331455 -79.359481 
L 293.839344 -77.658572 
L 293.45017 -75.957664 
L 293.132046 -74.256756 
L 292.867868 -72.555848 
L 292.652215 -70.854939 
L 292.484639 -69.154031 
L 292.363498 -67.453123 
L 292.283137 -65.752215 
z
" id="m44637fb849" style="stroke:#2b2b2b;stroke-width:3;"/>
    </defs>
    <g clip-path="url(#pbe14d72679)">
     <use style="fill:#e36149;stroke:#2b2b2b;stroke-width:3;" x="0" xlink:href="#m44637fb849" y="288"/>
    </g>
   </g>
   <g id="PolyCollection_3">
    <defs>
     <path d="M 464.08184 -63.874006 
L 463.70816 -63.874006 
L 463.575914 -65.228807 
L 463.375758 -66.583607 
L 463.088631 -67.938408 
L 462.69782 -69.293209 
L 462.192365 -70.648009 
L 461.569887 -72.00281 
L 460.837613 -73.357611 
L 460.010625 -74.712411 
L 459.107131 -76.067212 
L 458.141677 -77.422013 
L 457.118366 -78.776813 
L 456.02669 -80.131614 
L 454.842005 -81.486415 
L 453.530952 -82.841215 
L 452.059807 -84.196016 
L 450.401953 -85.550817 
L 448.540618 -86.905617 
L 446.465174 -88.260418 
L 444.162782 -89.615218 
L 441.610368 -90.970019 
L 438.772716 -92.32482 
L 435.610222 -93.67962 
L 432.095266 -95.034421 
L 428.231725 -96.389222 
L 424.070031 -97.744022 
L 419.711645 -99.098823 
L 415.300976 -100.453624 
L 411.007427 -101.808424 
L 407.003331 -103.163225 
L 403.44376 -104.518026 
L 400.452066 -105.872826 
L 398.112008 -107.227627 
L 396.465037 -108.582428 
L 395.510924 -109.937228 
L 395.211 -111.292029 
L 395.494886 -112.64683 
L 396.271887 -114.00163 
L 397.446645 -115.356431 
L 398.935678 -116.711232 
L 400.679049 -118.066032 
L 402.641647 -119.420833 
L 404.802193 -120.775634 
L 407.133879 -122.130434 
L 409.585519 -123.485235 
L 412.073408 -124.840036 
L 414.490204 -126.194836 
L 416.729582 -127.549637 
L 418.717583 -128.904437 
L 420.437683 -130.259238 
L 421.938689 -131.614039 
L 423.321965 -132.968839 
L 424.713304 -134.32364 
L 426.23072 -135.678441 
L 427.959661 -137.033241 
L 429.942161 -138.388042 
L 432.179376 -139.742843 
L 434.641699 -141.097643 
L 437.279715 -142.452444 
L 440.031989 -143.807245 
L 442.829737 -145.162045 
L 445.600808 -146.516846 
L 448.275021 -147.871647 
L 450.790731 -149.226447 
L 453.100516 -150.581248 
L 455.173787 -151.936049 
L 456.995641 -153.290849 
L 458.563267 -154.64565 
L 459.882095 -156.000451 
L 460.963392 -157.355251 
L 461.823541 -158.710052 
L 462.484131 -160.064853 
L 462.971614 -161.419653 
L 463.315843 -162.774454 
L 463.547611 -164.129255 
L 463.695894 -165.484055 
L 463.78557 -166.838856 
L 463.836094 -168.193656 
L 463.861163 -169.548457 
L 463.869128 -170.903258 
L 463.863791 -172.258058 
L 463.845374 -173.612859 
L 463.811618 -174.96766 
L 463.759111 -176.32246 
L 463.684957 -177.677261 
L 463.588693 -179.032062 
L 463.474076 -180.386862 
L 463.350087 -181.741663 
L 463.230493 -183.096464 
L 463.131667 -184.451264 
L 463.069019 -185.806065 
L 463.053088 -187.160866 
L 463.086642 -188.515666 
L 463.163892 -189.870467 
L 463.272127 -191.225268 
L 463.395128 -192.580068 
L 463.517116 -193.934869 
L 463.62591 -195.28967 
L 463.714499 -196.64447 
L 463.780949 -197.999271 
L 464.009051 -197.999271 
L 464.009051 -197.999271 
L 464.075501 -196.64447 
L 464.16409 -195.28967 
L 464.272884 -193.934869 
L 464.394872 -192.580068 
L 464.517873 -191.225268 
L 464.626108 -189.870467 
L 464.703358 -188.515666 
L 464.736912 -187.160866 
L 464.720981 -185.806065 
L 464.658333 -184.451264 
L 464.559507 -183.096464 
L 464.439913 -181.741663 
L 464.315924 -180.386862 
L 464.201307 -179.032062 
L 464.105043 -177.677261 
L 464.030889 -176.32246 
L 463.978382 -174.96766 
L 463.944626 -173.612859 
L 463.926209 -172.258058 
L 463.920872 -170.903258 
L 463.928837 -169.548457 
L 463.953906 -168.193656 
L 464.00443 -166.838856 
L 464.094106 -165.484055 
L 464.242389 -164.129255 
L 464.474157 -162.774454 
L 464.818386 -161.419653 
L 465.305869 -160.064853 
L 465.966459 -158.710052 
L 466.826608 -157.355251 
L 467.907905 -156.000451 
L 469.226733 -154.64565 
L 470.794359 -153.290849 
L 472.616213 -151.936049 
L 474.689484 -150.581248 
L 476.999269 -149.226447 
L 479.514979 -147.871647 
L 482.189192 -146.516846 
L 484.960263 -145.162045 
L 487.758011 -143.807245 
L 490.510285 -142.452444 
L 493.148301 -141.097643 
L 495.610624 -139.742843 
L 497.847839 -138.388042 
L 499.830339 -137.033241 
L 501.55928 -135.678441 
L 503.076696 -134.32364 
L 504.468035 -132.968839 
L 505.851311 -131.614039 
L 507.352317 -130.259238 
L 509.072417 -128.904437 
L 511.060418 -127.549637 
L 513.299796 -126.194836 
L 515.716592 -124.840036 
L 518.204481 -123.485235 
L 520.656121 -122.130434 
L 522.987807 -120.775634 
L 525.148353 -119.420833 
L 527.110951 -118.066032 
L 528.854322 -116.711232 
L 530.343355 -115.356431 
L 531.518113 -114.00163 
L 532.295114 -112.64683 
L 532.579 -111.292029 
L 532.279076 -109.937228 
L 531.324963 -108.582428 
L 529.677992 -107.227627 
L 527.337934 -105.872826 
L 524.34624 -104.518026 
L 520.786669 -103.163225 
L 516.782573 -101.808424 
L 512.489024 -100.453624 
L 508.078355 -99.098823 
L 503.719969 -97.744022 
L 499.558275 -96.389222 
L 495.694734 -95.034421 
L 492.179778 -93.67962 
L 489.017284 -92.32482 
L 486.179632 -90.970019 
L 483.627218 -89.615218 
L 481.324826 -88.260418 
L 479.249382 -86.905617 
L 477.388047 -85.550817 
L 475.730193 -84.196016 
L 474.259048 -82.841215 
L 472.947995 -81.486415 
L 471.76331 -80.131614 
L 470.671634 -78.776813 
L 469.648323 -77.422013 
L 468.682869 -76.067212 
L 467.779375 -74.712411 
L 466.952387 -73.357611 
L 466.220113 -72.00281 
L 465.597635 -70.648009 
L 465.09218 -69.293209 
L 464.701369 -67.938408 
L 464.414242 -66.583607 
L 464.214086 -65.228807 
L 464.08184 -63.874006 
z
" id="m74811d10a1" style="stroke:#2b2b2b;stroke-width:3;"/>
    </defs>
    <g clip-path="url(#pbe14d72679)">
     <use style="fill:#cfa64e;stroke:#2b2b2b;stroke-width:3;" x="0" xlink:href="#m74811d10a1" y="288"/>
    </g>
   </g>
   <g id="PolyCollection_4">
    <defs>
     <path d="M 635.725349 -41.784744 
L 635.484651 -41.784744 
L 635.411138 -43.172176 
L 635.310738 -44.559607 
L 635.18352 -45.947038 
L 635.034208 -47.33447 
L 634.872156 -48.721901 
L 634.709705 -50.109332 
L 634.559272 -51.496763 
L 634.430133 -52.884195 
L 634.32615 -54.271626 
L 634.24523 -55.659057 
L 634.180488 -57.046489 
L 634.122387 -58.43392 
L 634.061016 -59.821351 
L 633.988188 -61.208783 
L 633.8995 -62.596214 
L 633.796425 -63.983645 
L 633.687777 -65.371077 
L 633.589115 -66.758508 
L 633.518811 -68.145939 
L 633.490791 -69.53337 
L 633.505956 -70.920802 
L 633.545533 -72.308233 
L 633.569286 -73.695664 
L 633.519513 -75.083096 
L 633.329175 -76.470527 
L 632.930715 -77.857958 
L 632.262249 -79.24539 
L 631.269594 -80.632821 
L 629.905304 -82.020252 
L 628.127937 -83.407683 
L 625.905183 -84.795115 
L 623.22258 -86.182546 
L 620.096108 -87.569977 
L 616.583282 -88.957409 
L 612.785639 -90.34484 
L 608.83739 -91.732271 
L 604.880464 -93.119703 
L 601.033345 -94.507134 
L 597.366209 -95.894565 
L 593.894373 -97.281997 
L 590.594898 -98.669428 
L 587.440026 -100.056859 
L 584.43178 -101.44429 
L 581.620124 -102.831722 
L 579.094568 -104.219153 
L 576.952343 -105.606584 
L 575.258025 -106.994016 
L 574.0132 -108.381447 
L 573.148818 -109.768878 
L 572.541486 -111.15631 
L 572.044953 -112.543741 
L 571.524516 -113.931172 
L 570.885113 -115.318603 
L 570.089695 -116.706035 
L 569.168532 -118.093466 
L 568.220381 -119.480897 
L 567.404456 -120.868329 
L 566.921 -122.25576 
L 566.980201 -123.643191 
L 567.763847 -125.030623 
L 569.388723 -126.418054 
L 571.882254 -127.805485 
L 575.177835 -129.192917 
L 579.130722 -130.580348 
L 583.548502 -131.967779 
L 588.226009 -133.35521 
L 592.974701 -134.742642 
L 597.64029 -136.130073 
L 602.107583 -137.517504 
L 606.295857 -138.904936 
L 610.150203 -140.292367 
L 613.634026 -141.679798 
L 616.725708 -143.06723 
L 619.419472 -144.454661 
L 621.72785 -145.842092 
L 623.682172 -147.229524 
L 625.328672 -148.616955 
L 626.720487 -150.004386 
L 627.908446 -151.391817 
L 628.934261 -152.779249 
L 629.828252 -154.16668 
L 630.611089 -155.554111 
L 631.297153 -156.941543 
L 631.897164 -158.328974 
L 632.419278 -159.716405 
L 632.869566 -161.103837 
L 633.253114 -162.491268 
L 633.576084 -163.878699 
L 633.847673 -165.26613 
L 634.080466 -166.653562 
L 634.288485 -168.040993 
L 634.483696 -169.428424 
L 634.67279 -170.815856 
L 634.855926 -172.203287 
L 635.027987 -173.590718 
L 635.181595 -174.97815 
L 635.310385 -176.365581 
L 635.411225 -177.753012 
L 635.484787 -179.140444 
L 635.725213 -179.140444 
L 635.725213 -179.140444 
L 635.798775 -177.753012 
L 635.899615 -176.365581 
L 636.028405 -174.97815 
L 636.182013 -173.590718 
L 636.354074 -172.203287 
L 636.53721 -170.815856 
L 636.726304 -169.428424 
L 636.921515 -168.040993 
L 637.129534 -166.653562 
L 637.362327 -165.26613 
L 637.633916 -163.878699 
L 637.956886 -162.491268 
L 638.340434 -161.103837 
L 638.790722 -159.716405 
L 639.312836 -158.328974 
L 639.912847 -156.941543 
L 640.598911 -155.554111 
L 641.381748 -154.16668 
L 642.275739 -152.779249 
L 643.301554 -151.391817 
L 644.489513 -150.004386 
L 645.881328 -148.616955 
L 647.527828 -147.229524 
L 649.48215 -145.842092 
L 651.790528 -144.454661 
L 654.484292 -143.06723 
L 657.575974 -141.679798 
L 661.059797 -140.292367 
L 664.914143 -138.904936 
L 669.102417 -137.517504 
L 673.56971 -136.130073 
L 678.235299 -134.742642 
L 682.983991 -133.35521 
L 687.661498 -131.967779 
L 692.079278 -130.580348 
L 696.032165 -129.192917 
L 699.327746 -127.805485 
L 701.821277 -126.418054 
L 703.446153 -125.030623 
L 704.229799 -123.643191 
L 704.289 -122.25576 
L 703.805544 -120.868329 
L 702.989619 -119.480897 
L 702.041468 -118.093466 
L 701.120305 -116.706035 
L 700.324887 -115.318603 
L 699.685484 -113.931172 
L 699.165047 -112.543741 
L 698.668514 -111.15631 
L 698.061182 -109.768878 
L 697.1968 -108.381447 
L 695.951975 -106.994016 
L 694.257657 -105.606584 
L 692.115432 -104.219153 
L 689.589876 -102.831722 
L 686.77822 -101.44429 
L 683.769974 -100.056859 
L 680.615102 -98.669428 
L 677.315627 -97.281997 
L 673.843791 -95.894565 
L 670.176655 -94.507134 
L 666.329536 -93.119703 
L 662.37261 -91.732271 
L 658.424361 -90.34484 
L 654.626718 -88.957409 
L 651.113892 -87.569977 
L 647.98742 -86.182546 
L 645.304817 -84.795115 
L 643.082063 -83.407683 
L 641.304696 -82.020252 
L 639.940406 -80.632821 
L 638.947751 -79.24539 
L 638.279285 -77.857958 
L 637.880825 -76.470527 
L 637.690487 -75.083096 
L 637.640714 -73.695664 
L 637.664467 -72.308233 
L 637.704044 -70.920802 
L 637.719209 -69.53337 
L 637.691189 -68.145939 
L 637.620885 -66.758508 
L 637.522223 -65.371077 
L 637.413575 -63.983645 
L 637.3105 -62.596214 
L 637.221812 -61.208783 
L 637.148984 -59.821351 
L 637.087613 -58.43392 
L 637.029512 -57.046489 
L 636.96477 -55.659057 
L 636.88385 -54.271626 
L 636.779867 -52.884195 
L 636.650728 -51.496763 
L 636.500295 -50.109332 
L 636.337844 -48.721901 
L 636.175792 -47.33447 
L 636.02648 -45.947038 
L 635.899262 -44.559607 
L 635.798862 -43.172176 
L 635.725349 -41.784744 
z
" id="m81966a456e" style="stroke:#2b2b2b;stroke-width:3;"/>
    </defs>
    <g clip-path="url(#pbe14d72679)">
     <use style="fill:#6e8857;stroke:#2b2b2b;stroke-width:3;" x="0" xlink:href="#m81966a456e" y="288"/>
    </g>
   </g>
   <g id="PolyCollection_5">
    <defs>
     <path d="M 807.438168 -61.713524 
L 807.191832 -61.713524 
L 807.122155 -62.952029 
L 807.025642 -64.190534 
L 806.897993 -65.42904 
L 806.736104 -66.667545 
L 806.537975 -67.90605 
L 806.301812 -69.144556 
L 806.024299 -70.383061 
L 805.698355 -71.621566 
L 805.310995 -72.860072 
L 804.842097 -74.098577 
L 804.264802 -75.337082 
L 803.54784 -76.575588 
L 802.659474 -77.814093 
L 801.57216 -79.052599 
L 800.266669 -80.291104 
L 798.734553 -81.529609 
L 796.978403 -82.768115 
L 795.010234 -84.00662 
L 792.848949 -85.245125 
L 790.518047 -86.483631 
L 788.044252 -87.722136 
L 785.456989 -88.960641 
L 782.788059 -90.199147 
L 780.070809 -91.437652 
L 777.338686 -92.676157 
L 774.623748 -93.914663 
L 771.956032 -95.153168 
L 769.364346 -96.391673 
L 766.878165 -97.630179 
L 764.529394 -98.868684 
L 762.35226 -100.10719 
L 760.379803 -101.345695 
L 758.636408 -102.5842 
L 757.127386 -103.822706 
L 755.828435 -105.061211 
L 754.679268 -106.299716 
L 753.585904 -107.538222 
L 752.43445 -108.776727 
L 751.115598 -110.015232 
L 749.554641 -111.253738 
L 747.738414 -112.492243 
L 745.730094 -113.730748 
L 743.665818 -114.969254 
L 741.732851 -116.207759 
L 740.135187 -117.446264 
L 739.056533 -118.68477 
L 738.631 -119.923275 
L 738.928413 -121.161781 
L 739.955618 -122.400286 
L 741.669781 -123.638791 
L 743.996529 -124.877297 
L 746.845901 -126.115802 
L 750.121807 -127.354307 
L 753.724613 -128.592813 
L 757.549675 -129.831318 
L 761.485982 -131.069823 
L 765.418284 -132.308329 
L 769.233903 -133.546834 
L 772.833028 -134.785339 
L 776.139608 -136.023845 
L 779.109611 -137.26235 
L 781.734258 -138.500855 
L 784.037416 -139.739361 
L 786.067909 -140.977866 
L 787.888686 -142.216372 
L 789.565183 -143.454877 
L 791.155026 -144.693382 
L 792.700591 -145.931888 
L 794.225174 -147.170393 
L 795.732788 -148.408898 
L 797.210983 -149.647404 
L 798.63571 -150.885909 
L 799.977087 -152.124414 
L 801.205 -153.36292 
L 802.293778 -154.601425 
L 803.225482 -155.83993 
L 803.991671 -157.078436 
L 804.593697 -158.316941 
L 805.041663 -159.555446 
L 805.352337 -160.793952 
L 805.546462 -162.032457 
L 805.646085 -163.270963 
L 805.672589 -164.509468 
L 805.645926 -165.747973 
L 805.585032 -166.986479 
L 805.508874 -168.224984 
L 805.437157 -169.463489 
L 805.389811 -170.701995 
L 805.384931 -171.9405 
L 805.435676 -173.179005 
L 805.54727 -174.417511 
L 805.715414 -175.656016 
L 805.926913 -176.894521 
L 806.162505 -178.133027 
L 806.401 -179.371532 
L 806.623466 -180.610037 
L 806.816266 -181.848543 
L 806.972352 -183.087048 
L 807.090836 -184.325554 
L 807.539164 -184.325554 
L 807.539164 -184.325554 
L 807.657648 -183.087048 
L 807.813734 -181.848543 
L 808.006534 -180.610037 
L 808.229 -179.371532 
L 808.467495 -178.133027 
L 808.703087 -176.894521 
L 808.914586 -175.656016 
L 809.08273 -174.417511 
L 809.194324 -173.179005 
L 809.245069 -171.9405 
L 809.240189 -170.701995 
L 809.192843 -169.463489 
L 809.121126 -168.224984 
L 809.044968 -166.986479 
L 808.984074 -165.747973 
L 808.957411 -164.509468 
L 808.983915 -163.270963 
L 809.083538 -162.032457 
L 809.277663 -160.793952 
L 809.588337 -159.555446 
L 810.036303 -158.316941 
L 810.638329 -157.078436 
L 811.404518 -155.83993 
L 812.336222 -154.601425 
L 813.425 -153.36292 
L 814.652913 -152.124414 
L 815.99429 -150.885909 
L 817.419017 -149.647404 
L 818.897212 -148.408898 
L 820.404826 -147.170393 
L 821.929409 -145.931888 
L 823.474974 -144.693382 
L 825.064817 -143.454877 
L 826.741314 -142.216372 
L 828.562091 -140.977866 
L 830.592584 -139.739361 
L 832.895742 -138.500855 
L 835.520389 -137.26235 
L 838.490392 -136.023845 
L 841.796972 -134.785339 
L 845.396097 -133.546834 
L 849.211716 -132.308329 
L 853.144018 -131.069823 
L 857.080325 -129.831318 
L 860.905387 -128.592813 
L 864.508193 -127.354307 
L 867.784099 -126.115802 
L 870.633471 -124.877297 
L 872.960219 -123.638791 
L 874.674382 -122.400286 
L 875.701587 -121.161781 
L 875.999 -119.923275 
L 875.573467 -118.68477 
L 874.494813 -117.446264 
L 872.897149 -116.207759 
L 870.964182 -114.969254 
L 868.899906 -113.730748 
L 866.891586 -112.492243 
L 865.075359 -111.253738 
L 863.514402 -110.015232 
L 862.19555 -108.776727 
L 861.044096 -107.538222 
L 859.950732 -106.299716 
L 858.801565 -105.061211 
L 857.502614 -103.822706 
L 855.993592 -102.5842 
L 854.250197 -101.345695 
L 852.27774 -100.10719 
L 850.100606 -98.868684 
L 847.751835 -97.630179 
L 845.265654 -96.391673 
L 842.673968 -95.153168 
L 840.006252 -93.914663 
L 837.291314 -92.676157 
L 834.559191 -91.437652 
L 831.841941 -90.199147 
L 829.173011 -88.960641 
L 826.585748 -87.722136 
L 824.111953 -86.483631 
L 821.781051 -85.245125 
L 819.619766 -84.00662 
L 817.651597 -82.768115 
L 815.895447 -81.529609 
L 814.363331 -80.291104 
L 813.05784 -79.052599 
L 811.970526 -77.814093 
L 811.08216 -76.575588 
L 810.365198 -75.337082 
L 809.787903 -74.098577 
L 809.319005 -72.860072 
L 808.931645 -71.621566 
L 808.605701 -70.383061 
L 808.328188 -69.144556 
L 808.092025 -67.90605 
L 807.893896 -66.667545 
L 807.732007 -65.42904 
L 807.604358 -64.190534 
L 807.507845 -62.952029 
L 807.438168 -61.713524 
z
" id="m4c3f20c521" style="stroke:#2b2b2b;stroke-width:3;"/>
    </defs>
    <g clip-path="url(#pbe14d72679)">
     <use style="fill:#8b8b8b;stroke:#2b2b2b;stroke-width:3;" x="0" xlink:href="#m4c3f20c521" y="288"/>
    </g>
   </g>
   <g id="PolyCollection_6">
    <defs>
     <path d="M 979.249998 -66.975696 
L 978.800002 -66.975696 
L 978.669114 -68.159651 
L 978.481748 -69.343607 
L 978.222839 -70.527562 
L 977.876155 -71.711518 
L 977.424329 -72.895473 
L 976.848493 -74.079429 
L 976.127652 -75.263384 
L 975.238192 -76.44734 
L 974.154108 -77.631295 
L 972.848466 -78.815251 
L 971.296254 -79.999206 
L 969.478249 -81.183162 
L 967.385035 -82.367118 
L 965.020098 -83.551073 
L 962.401172 -84.735029 
L 959.559543 -85.918984 
L 956.537683 -87.10294 
L 953.386039 -88.286895 
L 950.159859 -89.470851 
L 946.916618 -90.654806 
L 943.714125 -91.838762 
L 940.608915 -93.022717 
L 937.654404 -94.206673 
L 934.89835 -95.390628 
L 932.379557 -96.574584 
L 930.124165 -97.758539 
L 928.142179 -98.942495 
L 926.425133 -100.12645 
L 924.945669 -101.310406 
L 923.659644 -102.494361 
L 922.510906 -103.678317 
L 921.43834 -104.862273 
L 920.38422 -106.046228 
L 919.30249 -107.230184 
L 918.16548 -108.414139 
L 916.967917 -109.598095 
L 915.727674 -110.78205 
L 914.483484 -111.966006 
L 913.29035 -113.149961 
L 912.213515 -114.333917 
L 911.321647 -115.517872 
L 910.67959 -116.701828 
L 910.341 -117.885783 
L 910.341639 -119.069739 
L 910.694683 -120.253694 
L 911.38972 -121.43765 
L 912.39657 -122.621605 
L 913.673606 -123.805561 
L 915.178375 -124.989516 
L 916.877017 -126.173472 
L 918.74905 -127.357428 
L 920.785751 -128.541383 
L 922.983024 -129.725339 
L 925.332034 -130.909294 
L 927.811898 -132.09325 
L 930.387866 -133.277205 
L 933.016024 -134.461161 
L 935.65285 -135.645116 
L 938.265955 -136.829072 
L 940.841953 -138.013027 
L 943.38851 -139.196983 
L 945.929783 -140.380938 
L 948.496598 -141.564894 
L 951.114343 -142.748849 
L 953.792025 -143.932805 
L 956.515411 -145.11676 
L 959.245936 -146.300716 
L 961.925449 -147.484671 
L 964.485475 -148.668627 
L 966.858655 -149.852583 
L 968.989696 -151.036538 
L 970.843444 -152.220494 
L 972.408563 -153.404449 
L 973.696405 -154.588405 
L 974.735856 -155.77236 
L 975.56576 -156.956316 
L 976.226938 -158.140271 
L 976.755613 -159.324227 
L 977.179444 -160.508182 
L 977.516553 -161.692138 
L 977.777118 -162.876093 
L 977.966614 -164.060049 
L 978.089526 -165.244004 
L 978.152521 -166.42796 
L 978.166304 -167.611915 
L 978.145852 -168.795871 
L 978.109085 -169.979826 
L 978.074424 -171.163782 
L 978.057925 -172.347737 
L 978.070747 -173.531693 
L 978.117614 -174.715649 
L 978.196656 -175.899604 
L 978.30058 -177.08356 
L 978.418811 -178.267515 
L 978.539968 -179.451471 
L 978.65405 -180.635426 
L 978.753887 -181.819382 
L 978.835667 -183.003337 
L 978.898668 -184.187293 
L 979.151332 -184.187293 
L 979.151332 -184.187293 
L 979.214333 -183.003337 
L 979.296113 -181.819382 
L 979.39595 -180.635426 
L 979.510032 -179.451471 
L 979.631189 -178.267515 
L 979.74942 -177.08356 
L 979.853344 -175.899604 
L 979.932386 -174.715649 
L 979.979253 -173.531693 
L 979.992075 -172.347737 
L 979.975576 -171.163782 
L 979.940915 -169.979826 
L 979.904148 -168.795871 
L 979.883696 -167.611915 
L 979.897479 -166.42796 
L 979.960474 -165.244004 
L 980.083386 -164.060049 
L 980.272882 -162.876093 
L 980.533447 -161.692138 
L 980.870556 -160.508182 
L 981.294387 -159.324227 
L 981.823062 -158.140271 
L 982.48424 -156.956316 
L 983.314144 -155.77236 
L 984.353595 -154.588405 
L 985.641437 -153.404449 
L 987.206556 -152.220494 
L 989.060304 -151.036538 
L 991.191345 -149.852583 
L 993.564525 -148.668627 
L 996.124551 -147.484671 
L 998.804064 -146.300716 
L 1001.534589 -145.11676 
L 1004.257975 -143.932805 
L 1006.935657 -142.748849 
L 1009.553402 -141.564894 
L 1012.120217 -140.380938 
L 1014.66149 -139.196983 
L 1017.208047 -138.013027 
L 1019.784045 -136.829072 
L 1022.39715 -135.645116 
L 1025.033976 -134.461161 
L 1027.662134 -133.277205 
L 1030.238102 -132.09325 
L 1032.717966 -130.909294 
L 1035.066976 -129.725339 
L 1037.264249 -128.541383 
L 1039.30095 -127.357428 
L 1041.172983 -126.173472 
L 1042.871625 -124.989516 
L 1044.376394 -123.805561 
L 1045.65343 -122.621605 
L 1046.66028 -121.43765 
L 1047.355317 -120.253694 
L 1047.708361 -119.069739 
L 1047.709 -117.885783 
L 1047.37041 -116.701828 
L 1046.728353 -115.517872 
L 1045.836485 -114.333917 
L 1044.75965 -113.149961 
L 1043.566516 -111.966006 
L 1042.322326 -110.78205 
L 1041.082083 -109.598095 
L 1039.88452 -108.414139 
L 1038.74751 -107.230184 
L 1037.66578 -106.046228 
L 1036.61166 -104.862273 
L 1035.539094 -103.678317 
L 1034.390356 -102.494361 
L 1033.104331 -101.310406 
L 1031.624867 -100.12645 
L 1029.907821 -98.942495 
L 1027.925835 -97.758539 
L 1025.670443 -96.574584 
L 1023.15165 -95.390628 
L 1020.395596 -94.206673 
L 1017.441085 -93.022717 
L 1014.335875 -91.838762 
L 1011.133382 -90.654806 
L 1007.890141 -89.470851 
L 1004.663961 -88.286895 
L 1001.512317 -87.10294 
L 998.490457 -85.918984 
L 995.648828 -84.735029 
L 993.029902 -83.551073 
L 990.664965 -82.367118 
L 988.571751 -81.183162 
L 986.753746 -79.999206 
L 985.201534 -78.815251 
L 983.895892 -77.631295 
L 982.811808 -76.44734 
L 981.922348 -75.263384 
L 981.201507 -74.079429 
L 980.625671 -72.895473 
L 980.173845 -71.711518 
L 979.827161 -70.527562 
L 979.568252 -69.343607 
L 979.380886 -68.159651 
L 979.249998 -66.975696 
z
" id="mc7aa53f312" style="stroke:#2b2b2b;stroke-width:3;"/>
    </defs>
    <g clip-path="url(#pbe14d72679)">
     <use style="fill:#731d6f;stroke:#2b2b2b;stroke-width:3;" x="0" xlink:href="#mc7aa53f312" y="288"/>
    </g>
   </g>
   <g id="line2d_7">
    <path clip-path="url(#pbe14d72679)" d="M 120.475 210.43702 
L 120.475 132.673468 
" style="fill:none;stroke:#2b2b2b;stroke-width:3;"/>
   </g>
   <g id="line2d_8">
    <path clip-path="url(#pbe14d72679)" d="M 120.475 182.837902 
L 120.475 162.355538 
" style="fill:none;stroke:#2b2b2b;stroke-width:9;"/>
   </g>
   <g id="line2d_9">
    <path clip-path="url(#pbe14d72679)" d="M 292.185 211.164971 
L 292.185 133.112818 
" style="fill:none;stroke:#2b2b2b;stroke-width:3;"/>
   </g>
   <g id="line2d_10">
    <path clip-path="url(#pbe14d72679)" d="M 292.185 182.512914 
L 292.185 162.752876 
" style="fill:none;stroke:#2b2b2b;stroke-width:9;"/>
   </g>
   <g id="line2d_11">
    <path clip-path="url(#pbe14d72679)" d="M 463.895 213.043179 
L 463.895 133.784625 
" style="fill:none;stroke:#2b2b2b;stroke-width:3;"/>
   </g>
   <g id="line2d_12">
    <path clip-path="url(#pbe14d72679)" d="M 463.895 183.113376 
L 463.895 160.250331 
" style="fill:none;stroke:#2b2b2b;stroke-width:9;"/>
   </g>
   <g id="line2d_13">
    <path clip-path="url(#pbe14d72679)" d="M 635.605 205.299042 
L 635.605 129.058132 
" style="fill:none;stroke:#2b2b2b;stroke-width:3;"/>
   </g>
   <g id="line2d_14">
    <path clip-path="url(#pbe14d72679)" d="M 635.605 182.923992 
L 635.605 160.548943 
" style="fill:none;stroke:#2b2b2b;stroke-width:9;"/>
   </g>
   <g id="line2d_15">
    <path clip-path="url(#pbe14d72679)" d="M 807.315 209.822605 
L 807.315 132.694118 
" style="fill:none;stroke:#2b2b2b;stroke-width:3;"/>
   </g>
   <g id="line2d_16">
    <path clip-path="url(#pbe14d72679)" d="M 807.315 182.917319 
L 807.315 161.39309 
" style="fill:none;stroke:#2b2b2b;stroke-width:9;"/>
   </g>
   <g id="line2d_17">
    <path clip-path="url(#pbe14d72679)" d="M 979.025 209.94149 
L 979.025 129.702683 
" style="fill:none;stroke:#2b2b2b;stroke-width:3;"/>
   </g>
   <g id="line2d_18">
    <path clip-path="url(#pbe14d72679)" d="M 979.025 184.979417 
L 979.025 159.317006 
" style="fill:none;stroke:#2b2b2b;stroke-width:9;"/>
   </g>
   <g id="patch_3">
    <path d="M 34.62 255.833125 
L 34.62 44.24 
" style="fill:none;stroke:#f0f0f0;stroke-linecap:square;stroke-linejoin:miter;stroke-width:3;"/>
   </g>
   <g id="patch_4">
    <path d="M 1064.88 255.833125 
L 1064.88 44.24 
" style="fill:none;stroke:#f0f0f0;stroke-linecap:square;stroke-linejoin:miter;stroke-width:3;"/>
   </g>
   <g id="patch_5">
    <path d="M 34.62 255.833125 
L 1064.88 255.833125 
" style="fill:none;stroke:#f0f0f0;stroke-linecap:square;stroke-linejoin:miter;stroke-width:3;"/>
   </g>
   <g id="patch_6">
    <path d="M 34.62 44.24 
L 1064.88 44.24 
" style="fill:none;stroke:#f0f0f0;stroke-linecap:square;stroke-linejoin:miter;stroke-width:3;"/>
   </g>
   <g id="PathCollection_1">
    <defs>
     <path d="M 0 3 
C 0.795609 3 1.55874 2.683901 2.12132 2.12132 
C 2.683901 1.55874 3 0.795609 3 0 
C 3 -0.795609 2.683901 -1.55874 2.12132 -2.12132 
C 1.55874 -2.683901 0.795609 -3 0 -3 
C -0.795609 -3 -1.55874 -2.683901 -2.12132 -2.12132 
C -2.683901 -1.55874 -3 -0.795609 -3 0 
C -3 0.795609 -2.683901 1.55874 -2.12132 2.12132 
C -1.55874 2.683901 -0.795609 3 0 3 
z
" id="m2dd9ba9a88" style="stroke:#2b2b2b;stroke-width:0.5;"/>
    </defs>
    <g clip-path="url(#pbe14d72679)">
     <use style="fill:#ffffff;stroke:#2b2b2b;stroke-width:0.5;" x="120.475" xlink:href="#m2dd9ba9a88" y="172.249561"/>
    </g>
   </g>
   <g id="PathCollection_2">
    <g clip-path="url(#pbe14d72679)">
     <use style="fill:#ffffff;stroke:#2b2b2b;stroke-width:0.5;" x="292.185" xlink:href="#m2dd9ba9a88" y="174.608899"/>
    </g>
   </g>
   <g id="PathCollection_3">
    <g clip-path="url(#pbe14d72679)">
     <use style="fill:#ffffff;stroke:#2b2b2b;stroke-width:0.5;" x="463.895" xlink:href="#m2dd9ba9a88" y="172.859647"/>
    </g>
   </g>
   <g id="PathCollection_4">
    <g clip-path="url(#pbe14d72679)">
     <use style="fill:#ffffff;stroke:#2b2b2b;stroke-width:0.5;" x="635.605" xlink:href="#m2dd9ba9a88" y="171.322115"/>
    </g>
   </g>
   <g id="PathCollection_5">
    <g clip-path="url(#pbe14d72679)">
     <use style="fill:#ffffff;stroke:#2b2b2b;stroke-width:0.5;" x="807.315" xlink:href="#m2dd9ba9a88" y="170.361519"/>
    </g>
   </g>
   <g id="PathCollection_6">
    <g clip-path="url(#pbe14d72679)">
     <use style="fill:#ffffff;stroke:#2b2b2b;stroke-width:0.5;" x="979.025" xlink:href="#m2dd9ba9a88" y="171.522909"/>
    </g>
   </g>
  </g>
  <g id="text_13">
   <!-- Violin Plot of all Continuous Variables -->
   <g style="fill:#262626;" transform="translate(416.035547 16.496719)scale(0.15 -0.15)">
    <defs>
     <path d="M 1803 0 
L 28 4581 
L 684 4581 
L 1875 1253 
Q 2019 853 2116 503 
Q 2222 878 2363 1253 
L 3600 4581 
L 4219 4581 
L 2425 0 
L 1803 0 
z
" id="ArialMT-56" transform="scale(0.015625)"/>
     <path id="ArialMT-20" transform="scale(0.015625)"/>
     <path d="M 494 0 
L 494 4581 
L 2222 4581 
Q 2678 4581 2919 4538 
Q 3256 4481 3484 4323 
Q 3713 4166 3852 3881 
Q 3991 3597 3991 3256 
Q 3991 2672 3619 2267 
Q 3247 1863 2275 1863 
L 1100 1863 
L 1100 0 
L 494 0 
z
M 1100 2403 
L 2284 2403 
Q 2872 2403 3119 2622 
Q 3366 2841 3366 3238 
Q 3366 3525 3220 3729 
Q 3075 3934 2838 4000 
Q 2684 4041 2272 4041 
L 1100 4041 
L 1100 2403 
z
" id="ArialMT-50" transform="scale(0.015625)"/>
     <path d="M 556 0 
L 556 2881 
L 59 2881 
L 59 3319 
L 556 3319 
L 556 3672 
Q 556 4006 616 4169 
Q 697 4388 901 4523 
Q 1106 4659 1475 4659 
Q 1713 4659 2000 4603 
L 1916 4113 
Q 1741 4144 1584 4144 
Q 1328 4144 1222 4034 
Q 1116 3925 1116 3625 
L 1116 3319 
L 1763 3319 
L 1763 2881 
L 1116 2881 
L 1116 0 
L 556 0 
z
" id="ArialMT-66" transform="scale(0.015625)"/>
     <path d="M 3763 1606 
L 4369 1453 
Q 4178 706 3683 314 
Q 3188 -78 2472 -78 
Q 1731 -78 1267 223 
Q 803 525 561 1097 
Q 319 1669 319 2325 
Q 319 3041 592 3573 
Q 866 4106 1370 4382 
Q 1875 4659 2481 4659 
Q 3169 4659 3637 4309 
Q 4106 3959 4291 3325 
L 3694 3184 
Q 3534 3684 3231 3912 
Q 2928 4141 2469 4141 
Q 1941 4141 1586 3887 
Q 1231 3634 1087 3207 
Q 944 2781 944 2328 
Q 944 1744 1114 1308 
Q 1284 872 1643 656 
Q 2003 441 2422 441 
Q 2931 441 3284 734 
Q 3638 1028 3763 1606 
z
" id="ArialMT-43" transform="scale(0.015625)"/>
     <path d="M 2597 0 
L 2597 488 
Q 2209 -75 1544 -75 
Q 1250 -75 995 37 
Q 741 150 617 320 
Q 494 491 444 738 
Q 409 903 409 1263 
L 409 3319 
L 972 3319 
L 972 1478 
Q 972 1038 1006 884 
Q 1059 663 1231 536 
Q 1403 409 1656 409 
Q 1909 409 2131 539 
Q 2353 669 2445 892 
Q 2538 1116 2538 1541 
L 2538 3319 
L 3100 3319 
L 3100 0 
L 2597 0 
z
" id="ArialMT-75" transform="scale(0.015625)"/>
     <path d="M 941 0 
L 419 0 
L 419 4581 
L 981 4581 
L 981 2947 
Q 1338 3394 1891 3394 
Q 2197 3394 2470 3270 
Q 2744 3147 2920 2923 
Q 3097 2700 3197 2384 
Q 3297 2069 3297 1709 
Q 3297 856 2875 390 
Q 2453 -75 1863 -75 
Q 1275 -75 941 416 
L 941 0 
z
M 934 1684 
Q 934 1088 1097 822 
Q 1363 388 1816 388 
Q 2184 388 2453 708 
Q 2722 1028 2722 1663 
Q 2722 2313 2464 2622 
Q 2206 2931 1841 2931 
Q 1472 2931 1203 2611 
Q 934 2291 934 1684 
z
" id="ArialMT-62" transform="scale(0.015625)"/>
    </defs>
    <use xlink:href="#ArialMT-56"/>
    <use x="64.949219" xlink:href="#ArialMT-69"/>
    <use x="87.166016" xlink:href="#ArialMT-6f"/>
    <use x="142.78125" xlink:href="#ArialMT-6c"/>
    <use x="164.998047" xlink:href="#ArialMT-69"/>
    <use x="187.214844" xlink:href="#ArialMT-6e"/>
    <use x="242.830078" xlink:href="#ArialMT-20"/>
    <use x="270.613281" xlink:href="#ArialMT-50"/>
    <use x="337.3125" xlink:href="#ArialMT-6c"/>
    <use x="359.529297" xlink:href="#ArialMT-6f"/>
    <use x="415.144531" xlink:href="#ArialMT-74"/>
    <use x="442.927734" xlink:href="#ArialMT-20"/>
    <use x="470.710938" xlink:href="#ArialMT-6f"/>
    <use x="526.326172" xlink:href="#ArialMT-66"/>
    <use x="554.109375" xlink:href="#ArialMT-20"/>
    <use x="581.892578" xlink:href="#ArialMT-61"/>
    <use x="637.507812" xlink:href="#ArialMT-6c"/>
    <use x="659.724609" xlink:href="#ArialMT-6c"/>
    <use x="681.941406" xlink:href="#ArialMT-20"/>
    <use x="709.724609" xlink:href="#ArialMT-43"/>
    <use x="781.941406" xlink:href="#ArialMT-6f"/>
    <use x="837.556641" xlink:href="#ArialMT-6e"/>
    <use x="893.171875" xlink:href="#ArialMT-74"/>
    <use x="920.955078" xlink:href="#ArialMT-69"/>
    <use x="943.171875" xlink:href="#ArialMT-6e"/>
    <use x="998.787109" xlink:href="#ArialMT-75"/>
    <use x="1054.402344" xlink:href="#ArialMT-6f"/>
    <use x="1110.017578" xlink:href="#ArialMT-75"/>
    <use x="1165.632812" xlink:href="#ArialMT-73"/>
    <use x="1215.632812" xlink:href="#ArialMT-20"/>
    <use x="1243.416016" xlink:href="#ArialMT-56"/>
    <use x="1302.740234" xlink:href="#ArialMT-61"/>
    <use x="1358.355469" xlink:href="#ArialMT-72"/>
    <use x="1391.65625" xlink:href="#ArialMT-69"/>
    <use x="1413.873047" xlink:href="#ArialMT-61"/>
    <use x="1469.488281" xlink:href="#ArialMT-62"/>
    <use x="1525.103516" xlink:href="#ArialMT-6c"/>
    <use x="1547.320312" xlink:href="#ArialMT-65"/>
    <use x="1602.935547" xlink:href="#ArialMT-73"/>
   </g>
  </g>
 </g>
 <defs>
  <clipPath id="pbe14d72679">
   <rect height="211.593125" width="1030.26" x="34.62" y="44.24"/>
  </clipPath>
 </defs>
</svg>
