<?xml version="1.0" encoding="utf-8" standalone="no"?>
<!DOCTYPE svg PUBLIC "-//W3C//DTD SVG 1.1//EN"
  "http://www.w3.org/Graphics/SVG/1.1/DTD/svg11.dtd">
<svg height="288pt" version="1.1" viewBox="0 0 1080 288" width="1080pt" xmlns="http://www.w3.org/2000/svg" xmlns:xlink="http://www.w3.org/1999/xlink">
 <metadata>
  <rdf:RDF xmlns:cc="http://creativecommons.org/ns#" xmlns:dc="http://purl.org/dc/elements/1.1/" xmlns:rdf="http://www.w3.org/1999/02/22-rdf-syntax-ns#">
   <cc:Work>
    <dc:type rdf:resource="http://purl.org/dc/dcmitype/StillImage"/>
    <dc:date>2022-03-03T12:21:01.988904</dc:date>
    <dc:format>image/svg+xml</dc:format>
    <dc:creator>
     <cc:Agent>
      <dc:title>Matplotlib v3.4.3, https://matplotlib.org/</dc:title>
     </cc:Agent>
    </dc:creator>
   </cc:Work>
  </rdf:RDF>
 </metadata>
 <defs>
  <style type="text/css">*{stroke-linecap:butt;stroke-linejoin:round;}</style>
 </defs>
 <g id="figure_1">
  <g id="patch_1">
   <path d="M 0 288 
L 1080 288 
L 1080 0 
L 0 0 
z
" style="fill:#f0f0f0;"/>
  </g>
  <g id="axes_1">
   <g id="patch_2">
    <path d="M 49.995 255.833125 
L 1064.88 255.833125 
L 1064.88 44.24 
L 49.995 44.24 
z
" style="fill:#f0f0f0;"/>
   </g>
   <g id="matplotlib.axis_1">
    <g id="xtick_1">
     <g id="text_1">
      <!-- Density -->
      <g style="fill:#262626;" transform="translate(95.08625 270.706719)scale(0.11 -0.11)">
       <defs>
        <path d="M 494 0 
L 494 4581 
L 2072 4581 
Q 2606 4581 2888 4516 
Q 3281 4425 3559 4188 
Q 3922 3881 4101 3404 
Q 4281 2928 4281 2316 
Q 4281 1794 4159 1391 
Q 4038 988 3847 723 
Q 3656 459 3429 307 
Q 3203 156 2883 78 
Q 2563 0 2147 0 
L 494 0 
z
M 1100 541 
L 2078 541 
Q 2531 541 2789 625 
Q 3047 709 3200 863 
Q 3416 1078 3536 1442 
Q 3656 1806 3656 2325 
Q 3656 3044 3420 3430 
Q 3184 3816 2847 3947 
Q 2603 4041 2063 4041 
L 1100 4041 
L 1100 541 
z
" id="ArialMT-44" transform="scale(0.015625)"/>
        <path d="M 2694 1069 
L 3275 997 
Q 3138 488 2766 206 
Q 2394 -75 1816 -75 
Q 1088 -75 661 373 
Q 234 822 234 1631 
Q 234 2469 665 2931 
Q 1097 3394 1784 3394 
Q 2450 3394 2872 2941 
Q 3294 2488 3294 1666 
Q 3294 1616 3291 1516 
L 816 1516 
Q 847 969 1125 678 
Q 1403 388 1819 388 
Q 2128 388 2347 550 
Q 2566 713 2694 1069 
z
M 847 1978 
L 2700 1978 
Q 2663 2397 2488 2606 
Q 2219 2931 1791 2931 
Q 1403 2931 1139 2672 
Q 875 2413 847 1978 
z
" id="ArialMT-65" transform="scale(0.015625)"/>
        <path d="M 422 0 
L 422 3319 
L 928 3319 
L 928 2847 
Q 1294 3394 1984 3394 
Q 2284 3394 2536 3286 
Q 2788 3178 2913 3003 
Q 3038 2828 3088 2588 
Q 3119 2431 3119 2041 
L 3119 0 
L 2556 0 
L 2556 2019 
Q 2556 2363 2490 2533 
Q 2425 2703 2258 2804 
Q 2091 2906 1866 2906 
Q 1506 2906 1245 2678 
Q 984 2450 984 1813 
L 984 0 
L 422 0 
z
" id="ArialMT-6e" transform="scale(0.015625)"/>
        <path d="M 197 991 
L 753 1078 
Q 800 744 1014 566 
Q 1228 388 1613 388 
Q 2000 388 2187 545 
Q 2375 703 2375 916 
Q 2375 1106 2209 1216 
Q 2094 1291 1634 1406 
Q 1016 1563 777 1677 
Q 538 1791 414 1992 
Q 291 2194 291 2438 
Q 291 2659 392 2848 
Q 494 3038 669 3163 
Q 800 3259 1026 3326 
Q 1253 3394 1513 3394 
Q 1903 3394 2198 3281 
Q 2494 3169 2634 2976 
Q 2775 2784 2828 2463 
L 2278 2388 
Q 2241 2644 2061 2787 
Q 1881 2931 1553 2931 
Q 1166 2931 1000 2803 
Q 834 2675 834 2503 
Q 834 2394 903 2306 
Q 972 2216 1119 2156 
Q 1203 2125 1616 2013 
Q 2213 1853 2448 1751 
Q 2684 1650 2818 1456 
Q 2953 1263 2953 975 
Q 2953 694 2789 445 
Q 2625 197 2315 61 
Q 2006 -75 1616 -75 
Q 969 -75 630 194 
Q 291 463 197 991 
z
" id="ArialMT-73" transform="scale(0.015625)"/>
        <path d="M 425 3934 
L 425 4581 
L 988 4581 
L 988 3934 
L 425 3934 
z
M 425 0 
L 425 3319 
L 988 3319 
L 988 0 
L 425 0 
z
" id="ArialMT-69" transform="scale(0.015625)"/>
        <path d="M 1650 503 
L 1731 6 
Q 1494 -44 1306 -44 
Q 1000 -44 831 53 
Q 663 150 594 308 
Q 525 466 525 972 
L 525 2881 
L 113 2881 
L 113 3319 
L 525 3319 
L 525 4141 
L 1084 4478 
L 1084 3319 
L 1650 3319 
L 1650 2881 
L 1084 2881 
L 1084 941 
Q 1084 700 1114 631 
Q 1144 563 1211 522 
Q 1278 481 1403 481 
Q 1497 481 1650 503 
z
" id="ArialMT-74" transform="scale(0.015625)"/>
        <path d="M 397 -1278 
L 334 -750 
Q 519 -800 656 -800 
Q 844 -800 956 -737 
Q 1069 -675 1141 -563 
Q 1194 -478 1313 -144 
Q 1328 -97 1363 -6 
L 103 3319 
L 709 3319 
L 1400 1397 
Q 1534 1031 1641 628 
Q 1738 1016 1872 1384 
L 2581 3319 
L 3144 3319 
L 1881 -56 
Q 1678 -603 1566 -809 
Q 1416 -1088 1222 -1217 
Q 1028 -1347 759 -1347 
Q 597 -1347 397 -1278 
z
" id="ArialMT-79" transform="scale(0.015625)"/>
       </defs>
       <use xlink:href="#ArialMT-44"/>
       <use x="72.216797" xlink:href="#ArialMT-65"/>
       <use x="127.832031" xlink:href="#ArialMT-6e"/>
       <use x="183.447266" xlink:href="#ArialMT-73"/>
       <use x="233.447266" xlink:href="#ArialMT-69"/>
       <use x="255.664062" xlink:href="#ArialMT-74"/>
       <use x="283.447266" xlink:href="#ArialMT-79"/>
      </g>
     </g>
    </g>
    <g id="xtick_2">
     <g id="text_2">
      <!-- Weight -->
      <g style="fill:#262626;" transform="translate(223.265156 270.706719)scale(0.11 -0.11)">
       <defs>
        <path d="M 1294 0 
L 78 4581 
L 700 4581 
L 1397 1578 
Q 1509 1106 1591 641 
Q 1766 1375 1797 1488 
L 2669 4581 
L 3400 4581 
L 4056 2263 
Q 4303 1400 4413 641 
Q 4500 1075 4641 1638 
L 5359 4581 
L 5969 4581 
L 4713 0 
L 4128 0 
L 3163 3491 
Q 3041 3928 3019 4028 
Q 2947 3713 2884 3491 
L 1913 0 
L 1294 0 
z
" id="ArialMT-57" transform="scale(0.015625)"/>
        <path d="M 319 -275 
L 866 -356 
Q 900 -609 1056 -725 
Q 1266 -881 1628 -881 
Q 2019 -881 2231 -725 
Q 2444 -569 2519 -288 
Q 2563 -116 2559 434 
Q 2191 0 1641 0 
Q 956 0 581 494 
Q 206 988 206 1678 
Q 206 2153 378 2554 
Q 550 2956 876 3175 
Q 1203 3394 1644 3394 
Q 2231 3394 2613 2919 
L 2613 3319 
L 3131 3319 
L 3131 450 
Q 3131 -325 2973 -648 
Q 2816 -972 2473 -1159 
Q 2131 -1347 1631 -1347 
Q 1038 -1347 672 -1080 
Q 306 -813 319 -275 
z
M 784 1719 
Q 784 1066 1043 766 
Q 1303 466 1694 466 
Q 2081 466 2343 764 
Q 2606 1063 2606 1700 
Q 2606 2309 2336 2618 
Q 2066 2928 1684 2928 
Q 1309 2928 1046 2623 
Q 784 2319 784 1719 
z
" id="ArialMT-67" transform="scale(0.015625)"/>
        <path d="M 422 0 
L 422 4581 
L 984 4581 
L 984 2938 
Q 1378 3394 1978 3394 
Q 2347 3394 2619 3248 
Q 2891 3103 3008 2847 
Q 3125 2591 3125 2103 
L 3125 0 
L 2563 0 
L 2563 2103 
Q 2563 2525 2380 2717 
Q 2197 2909 1863 2909 
Q 1613 2909 1392 2779 
Q 1172 2650 1078 2428 
Q 984 2206 984 1816 
L 984 0 
L 422 0 
z
" id="ArialMT-68" transform="scale(0.015625)"/>
       </defs>
       <use xlink:href="#ArialMT-57"/>
       <use x="92.634766" xlink:href="#ArialMT-65"/>
       <use x="148.25" xlink:href="#ArialMT-69"/>
       <use x="170.466797" xlink:href="#ArialMT-67"/>
       <use x="226.082031" xlink:href="#ArialMT-68"/>
       <use x="281.697266" xlink:href="#ArialMT-74"/>
      </g>
     </g>
    </g>
    <g id="xtick_3">
     <g id="text_3">
      <!-- Height -->
      <g style="fill:#262626;" transform="translate(351.248984 270.706719)scale(0.11 -0.11)">
       <defs>
        <path d="M 513 0 
L 513 4581 
L 1119 4581 
L 1119 2700 
L 3500 2700 
L 3500 4581 
L 4106 4581 
L 4106 0 
L 3500 0 
L 3500 2159 
L 1119 2159 
L 1119 0 
L 513 0 
z
" id="ArialMT-48" transform="scale(0.015625)"/>
       </defs>
       <use xlink:href="#ArialMT-48"/>
       <use x="72.216797" xlink:href="#ArialMT-65"/>
       <use x="127.832031" xlink:href="#ArialMT-69"/>
       <use x="150.048828" xlink:href="#ArialMT-67"/>
       <use x="205.664062" xlink:href="#ArialMT-68"/>
       <use x="261.279297" xlink:href="#ArialMT-74"/>
      </g>
     </g>
    </g>
    <g id="xtick_4">
     <g id="text_4">
      <!-- Neck -->
      <g style="fill:#262626;" transform="translate(481.476641 270.706719)scale(0.11 -0.11)">
       <defs>
        <path d="M 488 0 
L 488 4581 
L 1109 4581 
L 3516 984 
L 3516 4581 
L 4097 4581 
L 4097 0 
L 3475 0 
L 1069 3600 
L 1069 0 
L 488 0 
z
" id="ArialMT-4e" transform="scale(0.015625)"/>
        <path d="M 2588 1216 
L 3141 1144 
Q 3050 572 2676 248 
Q 2303 -75 1759 -75 
Q 1078 -75 664 370 
Q 250 816 250 1647 
Q 250 2184 428 2587 
Q 606 2991 970 3192 
Q 1334 3394 1763 3394 
Q 2303 3394 2647 3120 
Q 2991 2847 3088 2344 
L 2541 2259 
Q 2463 2594 2264 2762 
Q 2066 2931 1784 2931 
Q 1359 2931 1093 2626 
Q 828 2322 828 1663 
Q 828 994 1084 691 
Q 1341 388 1753 388 
Q 2084 388 2306 591 
Q 2528 794 2588 1216 
z
" id="ArialMT-63" transform="scale(0.015625)"/>
        <path d="M 425 0 
L 425 4581 
L 988 4581 
L 988 1969 
L 2319 3319 
L 3047 3319 
L 1778 2088 
L 3175 0 
L 2481 0 
L 1384 1697 
L 988 1316 
L 988 0 
L 425 0 
z
" id="ArialMT-6b" transform="scale(0.015625)"/>
       </defs>
       <use xlink:href="#ArialMT-4e"/>
       <use x="72.216797" xlink:href="#ArialMT-65"/>
       <use x="127.832031" xlink:href="#ArialMT-63"/>
       <use x="177.832031" xlink:href="#ArialMT-6b"/>
      </g>
     </g>
    </g>
    <g id="xtick_5">
     <g id="text_5">
      <!-- Chest -->
      <g style="fill:#262626;" transform="translate(606.500781 270.706719)scale(0.11 -0.11)">
       <defs>
        <path d="M 3763 1606 
L 4369 1453 
Q 4178 706 3683 314 
Q 3188 -78 2472 -78 
Q 1731 -78 1267 223 
Q 803 525 561 1097 
Q 319 1669 319 2325 
Q 319 3041 592 3573 
Q 866 4106 1370 4382 
Q 1875 4659 2481 4659 
Q 3169 4659 3637 4309 
Q 4106 3959 4291 3325 
L 3694 3184 
Q 3534 3684 3231 3912 
Q 2928 4141 2469 4141 
Q 1941 4141 1586 3887 
Q 1231 3634 1087 3207 
Q 944 2781 944 2328 
Q 944 1744 1114 1308 
Q 1284 872 1643 656 
Q 2003 441 2422 441 
Q 2931 441 3284 734 
Q 3638 1028 3763 1606 
z
" id="ArialMT-43" transform="scale(0.015625)"/>
       </defs>
       <use xlink:href="#ArialMT-43"/>
       <use x="72.216797" xlink:href="#ArialMT-68"/>
       <use x="127.832031" xlink:href="#ArialMT-65"/>
       <use x="183.447266" xlink:href="#ArialMT-73"/>
       <use x="233.447266" xlink:href="#ArialMT-74"/>
      </g>
     </g>
    </g>
    <g id="xtick_6">
     <g id="text_6">
      <!-- Abdomen -->
      <g style="fill:#262626;" transform="translate(724.185859 270.706719)scale(0.11 -0.11)">
       <defs>
        <path d="M -9 0 
L 1750 4581 
L 2403 4581 
L 4278 0 
L 3588 0 
L 3053 1388 
L 1138 1388 
L 634 0 
L -9 0 
z
M 1313 1881 
L 2866 1881 
L 2388 3150 
Q 2169 3728 2063 4100 
Q 1975 3659 1816 3225 
L 1313 1881 
z
" id="ArialMT-41" transform="scale(0.015625)"/>
        <path d="M 941 0 
L 419 0 
L 419 4581 
L 981 4581 
L 981 2947 
Q 1338 3394 1891 3394 
Q 2197 3394 2470 3270 
Q 2744 3147 2920 2923 
Q 3097 2700 3197 2384 
Q 3297 2069 3297 1709 
Q 3297 856 2875 390 
Q 2453 -75 1863 -75 
Q 1275 -75 941 416 
L 941 0 
z
M 934 1684 
Q 934 1088 1097 822 
Q 1363 388 1816 388 
Q 2184 388 2453 708 
Q 2722 1028 2722 1663 
Q 2722 2313 2464 2622 
Q 2206 2931 1841 2931 
Q 1472 2931 1203 2611 
Q 934 2291 934 1684 
z
" id="ArialMT-62" transform="scale(0.015625)"/>
        <path d="M 2575 0 
L 2575 419 
Q 2259 -75 1647 -75 
Q 1250 -75 917 144 
Q 584 363 401 755 
Q 219 1147 219 1656 
Q 219 2153 384 2558 
Q 550 2963 881 3178 
Q 1213 3394 1622 3394 
Q 1922 3394 2156 3267 
Q 2391 3141 2538 2938 
L 2538 4581 
L 3097 4581 
L 3097 0 
L 2575 0 
z
M 797 1656 
Q 797 1019 1065 703 
Q 1334 388 1700 388 
Q 2069 388 2326 689 
Q 2584 991 2584 1609 
Q 2584 2291 2321 2609 
Q 2059 2928 1675 2928 
Q 1300 2928 1048 2622 
Q 797 2316 797 1656 
z
" id="ArialMT-64" transform="scale(0.015625)"/>
        <path d="M 213 1659 
Q 213 2581 725 3025 
Q 1153 3394 1769 3394 
Q 2453 3394 2887 2945 
Q 3322 2497 3322 1706 
Q 3322 1066 3130 698 
Q 2938 331 2570 128 
Q 2203 -75 1769 -75 
Q 1072 -75 642 372 
Q 213 819 213 1659 
z
M 791 1659 
Q 791 1022 1069 705 
Q 1347 388 1769 388 
Q 2188 388 2466 706 
Q 2744 1025 2744 1678 
Q 2744 2294 2464 2611 
Q 2184 2928 1769 2928 
Q 1347 2928 1069 2612 
Q 791 2297 791 1659 
z
" id="ArialMT-6f" transform="scale(0.015625)"/>
        <path d="M 422 0 
L 422 3319 
L 925 3319 
L 925 2853 
Q 1081 3097 1340 3245 
Q 1600 3394 1931 3394 
Q 2300 3394 2536 3241 
Q 2772 3088 2869 2813 
Q 3263 3394 3894 3394 
Q 4388 3394 4653 3120 
Q 4919 2847 4919 2278 
L 4919 0 
L 4359 0 
L 4359 2091 
Q 4359 2428 4304 2576 
Q 4250 2725 4106 2815 
Q 3963 2906 3769 2906 
Q 3419 2906 3187 2673 
Q 2956 2441 2956 1928 
L 2956 0 
L 2394 0 
L 2394 2156 
Q 2394 2531 2256 2718 
Q 2119 2906 1806 2906 
Q 1569 2906 1367 2781 
Q 1166 2656 1075 2415 
Q 984 2175 984 1722 
L 984 0 
L 422 0 
z
" id="ArialMT-6d" transform="scale(0.015625)"/>
       </defs>
       <use xlink:href="#ArialMT-41"/>
       <use x="66.699219" xlink:href="#ArialMT-62"/>
       <use x="122.314453" xlink:href="#ArialMT-64"/>
       <use x="177.929688" xlink:href="#ArialMT-6f"/>
       <use x="233.544922" xlink:href="#ArialMT-6d"/>
       <use x="316.845703" xlink:href="#ArialMT-65"/>
       <use x="372.460938" xlink:href="#ArialMT-6e"/>
      </g>
     </g>
    </g>
    <g id="xtick_7">
     <g id="text_7">
      <!-- Hip -->
      <g style="fill:#262626;" transform="translate(866.336484 270.706719)scale(0.11 -0.11)">
       <defs>
        <path d="M 422 -1272 
L 422 3319 
L 934 3319 
L 934 2888 
Q 1116 3141 1344 3267 
Q 1572 3394 1897 3394 
Q 2322 3394 2647 3175 
Q 2972 2956 3137 2557 
Q 3303 2159 3303 1684 
Q 3303 1175 3120 767 
Q 2938 359 2589 142 
Q 2241 -75 1856 -75 
Q 1575 -75 1351 44 
Q 1128 163 984 344 
L 984 -1272 
L 422 -1272 
z
M 931 1641 
Q 931 1000 1190 694 
Q 1450 388 1819 388 
Q 2194 388 2461 705 
Q 2728 1022 2728 1688 
Q 2728 2322 2467 2637 
Q 2206 2953 1844 2953 
Q 1484 2953 1207 2617 
Q 931 2281 931 1641 
z
" id="ArialMT-70" transform="scale(0.015625)"/>
       </defs>
       <use xlink:href="#ArialMT-48"/>
       <use x="72.216797" xlink:href="#ArialMT-69"/>
       <use x="94.433594" xlink:href="#ArialMT-70"/>
      </g>
     </g>
    </g>
    <g id="xtick_8">
     <g id="text_8">
      <!-- Thigh -->
      <g style="fill:#262626;" transform="translate(987.692812 270.706719)scale(0.11 -0.11)">
       <defs>
        <path d="M 1659 0 
L 1659 4041 
L 150 4041 
L 150 4581 
L 3781 4581 
L 3781 4041 
L 2266 4041 
L 2266 0 
L 1659 0 
z
" id="ArialMT-54" transform="scale(0.015625)"/>
       </defs>
       <use xlink:href="#ArialMT-54"/>
       <use x="61.083984" xlink:href="#ArialMT-68"/>
       <use x="116.699219" xlink:href="#ArialMT-69"/>
       <use x="138.916016" xlink:href="#ArialMT-67"/>
       <use x="194.53125" xlink:href="#ArialMT-68"/>
      </g>
     </g>
    </g>
   </g>
   <g id="matplotlib.axis_2">
    <g id="ytick_1">
     <g id="line2d_1">
      <path clip-path="url(#p2c295e9855)" d="M 49.995 253.676627 
L 1064.88 253.676627 
" style="fill:none;stroke:#cbcbcb;"/>
     </g>
     <g id="text_9">
      <!-- −12.5 -->
      <g style="fill:#262626;" transform="translate(15.163281 257.613424)scale(0.11 -0.11)">
       <defs>
        <path d="M 3381 1997 
L 356 1997 
L 356 2522 
L 3381 2522 
L 3381 1997 
z
" id="ArialMT-2212" transform="scale(0.015625)"/>
        <path d="M 2384 0 
L 1822 0 
L 1822 3584 
Q 1619 3391 1289 3197 
Q 959 3003 697 2906 
L 697 3450 
Q 1169 3672 1522 3987 
Q 1875 4303 2022 4600 
L 2384 4600 
L 2384 0 
z
" id="ArialMT-31" transform="scale(0.015625)"/>
        <path d="M 3222 541 
L 3222 0 
L 194 0 
Q 188 203 259 391 
Q 375 700 629 1000 
Q 884 1300 1366 1694 
Q 2113 2306 2375 2664 
Q 2638 3022 2638 3341 
Q 2638 3675 2398 3904 
Q 2159 4134 1775 4134 
Q 1369 4134 1125 3890 
Q 881 3647 878 3216 
L 300 3275 
Q 359 3922 746 4261 
Q 1134 4600 1788 4600 
Q 2447 4600 2831 4234 
Q 3216 3869 3216 3328 
Q 3216 3053 3103 2787 
Q 2991 2522 2730 2228 
Q 2469 1934 1863 1422 
Q 1356 997 1212 845 
Q 1069 694 975 541 
L 3222 541 
z
" id="ArialMT-32" transform="scale(0.015625)"/>
        <path d="M 581 0 
L 581 641 
L 1222 641 
L 1222 0 
L 581 0 
z
" id="ArialMT-2e" transform="scale(0.015625)"/>
        <path d="M 266 1200 
L 856 1250 
Q 922 819 1161 601 
Q 1400 384 1738 384 
Q 2144 384 2425 690 
Q 2706 997 2706 1503 
Q 2706 1984 2436 2262 
Q 2166 2541 1728 2541 
Q 1456 2541 1237 2417 
Q 1019 2294 894 2097 
L 366 2166 
L 809 4519 
L 3088 4519 
L 3088 3981 
L 1259 3981 
L 1013 2750 
Q 1425 3038 1878 3038 
Q 2478 3038 2890 2622 
Q 3303 2206 3303 1553 
Q 3303 931 2941 478 
Q 2500 -78 1738 -78 
Q 1113 -78 717 272 
Q 322 622 266 1200 
z
" id="ArialMT-35" transform="scale(0.015625)"/>
       </defs>
       <use xlink:href="#ArialMT-2212"/>
       <use x="58.398438" xlink:href="#ArialMT-31"/>
       <use x="114.013672" xlink:href="#ArialMT-32"/>
       <use x="169.628906" xlink:href="#ArialMT-2e"/>
       <use x="197.412109" xlink:href="#ArialMT-35"/>
      </g>
     </g>
    </g>
    <g id="ytick_2">
     <g id="line2d_2">
      <path clip-path="url(#p2c295e9855)" d="M 49.995 228.489432 
L 1064.88 228.489432 
" style="fill:none;stroke:#cbcbcb;"/>
     </g>
     <g id="text_10">
      <!-- −10.0 -->
      <g style="fill:#262626;" transform="translate(15.163281 232.426229)scale(0.11 -0.11)">
       <defs>
        <path d="M 266 2259 
Q 266 3072 433 3567 
Q 600 4063 929 4331 
Q 1259 4600 1759 4600 
Q 2128 4600 2406 4451 
Q 2684 4303 2865 4023 
Q 3047 3744 3150 3342 
Q 3253 2941 3253 2259 
Q 3253 1453 3087 958 
Q 2922 463 2592 192 
Q 2263 -78 1759 -78 
Q 1097 -78 719 397 
Q 266 969 266 2259 
z
M 844 2259 
Q 844 1131 1108 757 
Q 1372 384 1759 384 
Q 2147 384 2411 759 
Q 2675 1134 2675 2259 
Q 2675 3391 2411 3762 
Q 2147 4134 1753 4134 
Q 1366 4134 1134 3806 
Q 844 3388 844 2259 
z
" id="ArialMT-30" transform="scale(0.015625)"/>
       </defs>
       <use xlink:href="#ArialMT-2212"/>
       <use x="58.398438" xlink:href="#ArialMT-31"/>
       <use x="114.013672" xlink:href="#ArialMT-30"/>
       <use x="169.628906" xlink:href="#ArialMT-2e"/>
       <use x="197.412109" xlink:href="#ArialMT-30"/>
      </g>
     </g>
    </g>
    <g id="ytick_3">
     <g id="line2d_3">
      <path clip-path="url(#p2c295e9855)" d="M 49.995 203.302236 
L 1064.88 203.302236 
" style="fill:none;stroke:#cbcbcb;"/>
     </g>
     <g id="text_11">
      <!-- −7.5 -->
      <g style="fill:#262626;" transform="translate(21.280312 207.239033)scale(0.11 -0.11)">
       <defs>
        <path d="M 303 3981 
L 303 4522 
L 3269 4522 
L 3269 4084 
Q 2831 3619 2401 2847 
Q 1972 2075 1738 1259 
Q 1569 684 1522 0 
L 944 0 
Q 953 541 1156 1306 
Q 1359 2072 1739 2783 
Q 2119 3494 2547 3981 
L 303 3981 
z
" id="ArialMT-37" transform="scale(0.015625)"/>
       </defs>
       <use xlink:href="#ArialMT-2212"/>
       <use x="58.398438" xlink:href="#ArialMT-37"/>
       <use x="114.013672" xlink:href="#ArialMT-2e"/>
       <use x="141.796875" xlink:href="#ArialMT-35"/>
      </g>
     </g>
    </g>
    <g id="ytick_4">
     <g id="line2d_4">
      <path clip-path="url(#p2c295e9855)" d="M 49.995 178.11504 
L 1064.88 178.11504 
" style="fill:none;stroke:#cbcbcb;"/>
     </g>
     <g id="text_12">
      <!-- −5.0 -->
      <g style="fill:#262626;" transform="translate(21.280312 182.051837)scale(0.11 -0.11)">
       <use xlink:href="#ArialMT-2212"/>
       <use x="58.398438" xlink:href="#ArialMT-35"/>
       <use x="114.013672" xlink:href="#ArialMT-2e"/>
       <use x="141.796875" xlink:href="#ArialMT-30"/>
      </g>
     </g>
    </g>
    <g id="ytick_5">
     <g id="line2d_5">
      <path clip-path="url(#p2c295e9855)" d="M 49.995 152.927845 
L 1064.88 152.927845 
" style="fill:none;stroke:#cbcbcb;"/>
     </g>
     <g id="text_13">
      <!-- −2.5 -->
      <g style="fill:#262626;" transform="translate(21.280312 156.864642)scale(0.11 -0.11)">
       <use xlink:href="#ArialMT-2212"/>
       <use x="58.398438" xlink:href="#ArialMT-32"/>
       <use x="114.013672" xlink:href="#ArialMT-2e"/>
       <use x="141.796875" xlink:href="#ArialMT-35"/>
      </g>
     </g>
    </g>
    <g id="ytick_6">
     <g id="line2d_6">
      <path clip-path="url(#p2c295e9855)" d="M 49.995 127.740649 
L 1064.88 127.740649 
" style="fill:none;stroke:#cbcbcb;"/>
     </g>
     <g id="text_14">
      <!-- 0.0 -->
      <g style="fill:#262626;" transform="translate(27.705 131.677446)scale(0.11 -0.11)">
       <use xlink:href="#ArialMT-30"/>
       <use x="55.615234" xlink:href="#ArialMT-2e"/>
       <use x="83.398438" xlink:href="#ArialMT-30"/>
      </g>
     </g>
    </g>
    <g id="ytick_7">
     <g id="line2d_7">
      <path clip-path="url(#p2c295e9855)" d="M 49.995 102.553453 
L 1064.88 102.553453 
" style="fill:none;stroke:#cbcbcb;"/>
     </g>
     <g id="text_15">
      <!-- 2.5 -->
      <g style="fill:#262626;" transform="translate(27.705 106.49025)scale(0.11 -0.11)">
       <use xlink:href="#ArialMT-32"/>
       <use x="55.615234" xlink:href="#ArialMT-2e"/>
       <use x="83.398438" xlink:href="#ArialMT-35"/>
      </g>
     </g>
    </g>
    <g id="ytick_8">
     <g id="line2d_8">
      <path clip-path="url(#p2c295e9855)" d="M 49.995 77.366258 
L 1064.88 77.366258 
" style="fill:none;stroke:#cbcbcb;"/>
     </g>
     <g id="text_16">
      <!-- 5.0 -->
      <g style="fill:#262626;" transform="translate(27.705 81.303054)scale(0.11 -0.11)">
       <use xlink:href="#ArialMT-35"/>
       <use x="55.615234" xlink:href="#ArialMT-2e"/>
       <use x="83.398438" xlink:href="#ArialMT-30"/>
      </g>
     </g>
    </g>
    <g id="ytick_9">
     <g id="line2d_9">
      <path clip-path="url(#p2c295e9855)" d="M 49.995 52.179062 
L 1064.88 52.179062 
" style="fill:none;stroke:#cbcbcb;"/>
     </g>
     <g id="text_17">
      <!-- 7.5 -->
      <g style="fill:#262626;" transform="translate(27.705 56.115859)scale(0.11 -0.11)">
       <use xlink:href="#ArialMT-37"/>
       <use x="55.615234" xlink:href="#ArialMT-2e"/>
       <use x="83.398438" xlink:href="#ArialMT-35"/>
      </g>
     </g>
    </g>
   </g>
   <g id="PolyCollection_1">
    <defs>
     <path d="M 113.518596 -121.524822 
L 113.332029 -121.524822 
L 113.283106 -122.268583 
L 113.218994 -123.012343 
L 113.140385 -123.756104 
L 113.050638 -124.499865 
L 112.955908 -125.243625 
L 112.864463 -125.987386 
L 112.785127 -126.731147 
L 112.725106 -127.474907 
L 112.687711 -128.218668 
L 112.670666 -128.962429 
L 112.665542 -129.706189 
L 112.658558 -130.44995 
L 112.632528 -131.193711 
L 112.569317 -131.937471 
L 112.451993 -132.681232 
L 112.265935 -133.424993 
L 111.998531 -134.168754 
L 111.637596 -134.912514 
L 111.169141 -135.656275 
L 110.575483 -136.400036 
L 109.834672 -137.143796 
L 108.92194 -137.887557 
L 107.81325 -138.631318 
L 106.490352 -139.375078 
L 104.946113 -140.118839 
L 103.188584 -140.8626 
L 101.242352 -141.60636 
L 99.146346 -142.350121 
L 96.948139 -143.093882 
L 94.695947 -143.837642 
L 92.430351 -144.581403 
L 90.178185 -145.325164 
L 87.950554 -146.068924 
L 85.745758 -146.812685 
L 83.556178 -147.556446 
L 81.376713 -148.300206 
L 79.211605 -149.043967 
L 77.077121 -149.787728 
L 74.999269 -150.531488 
L 73.007961 -151.275249 
L 71.130681 -152.01901 
L 69.388909 -152.76277 
L 67.799049 -153.506531 
L 66.37708 -154.250292 
L 65.143936 -154.994052 
L 64.127905 -155.737813 
L 63.361675 -156.481574 
L 62.874305 -157.225334 
L 62.681062 -157.969095 
L 62.77526 -158.712856 
L 63.125503 -159.456616 
L 63.679519 -160.200377 
L 64.373238 -160.944138 
L 65.14216 -161.687898 
L 65.931816 -162.431659 
L 66.705011 -163.17542 
L 67.444977 -163.91918 
L 68.154726 -164.662941 
L 68.853633 -165.406702 
L 69.572482 -166.150462 
L 70.348107 -166.894223 
L 71.218482 -167.637984 
L 72.218789 -168.381744 
L 73.378598 -169.125505 
L 74.719984 -169.869266 
L 76.256225 -170.613026 
L 77.990785 -171.356787 
L 79.916504 -172.100548 
L 82.01525 -172.844309 
L 84.258417 -173.588069 
L 86.608584 -174.33183 
L 89.022303 -175.075591 
L 91.45355 -175.819351 
L 93.857119 -176.563112 
L 96.191252 -177.306873 
L 98.419183 -178.050633 
L 100.50976 -178.794394 
L 102.437614 -179.538155 
L 104.183414 -180.281915 
L 105.734383 -181.025676 
L 107.084917 -181.769437 
L 108.236889 -182.513197 
L 109.199292 -183.256958 
L 109.9872 -184.000719 
L 110.620265 -184.744479 
L 111.121104 -185.48824 
L 111.513757 -186.232001 
L 111.822229 -186.975761 
L 112.069 -187.719522 
L 112.273516 -188.463283 
L 112.450848 -189.207043 
L 112.610909 -189.950804 
L 112.758508 -190.694565 
L 112.894311 -191.438325 
L 113.016449 -192.182086 
L 113.122284 -192.925847 
L 113.209859 -193.669607 
L 113.278713 -194.413368 
L 113.330017 -195.157129 
L 113.520608 -195.157129 
L 113.520608 -195.157129 
L 113.571912 -194.413368 
L 113.640766 -193.669607 
L 113.728341 -192.925847 
L 113.834176 -192.182086 
L 113.956314 -191.438325 
L 114.092117 -190.694565 
L 114.239716 -189.950804 
L 114.399777 -189.207043 
L 114.577109 -188.463283 
L 114.781625 -187.719522 
L 115.028396 -186.975761 
L 115.336868 -186.232001 
L 115.729521 -185.48824 
L 116.23036 -184.744479 
L 116.863425 -184.000719 
L 117.651333 -183.256958 
L 118.613736 -182.513197 
L 119.765708 -181.769437 
L 121.116242 -181.025676 
L 122.667211 -180.281915 
L 124.413011 -179.538155 
L 126.340865 -178.794394 
L 128.431442 -178.050633 
L 130.659373 -177.306873 
L 132.993506 -176.563112 
L 135.397075 -175.819351 
L 137.828322 -175.075591 
L 140.242041 -174.33183 
L 142.592208 -173.588069 
L 144.835375 -172.844309 
L 146.934121 -172.100548 
L 148.85984 -171.356787 
L 150.5944 -170.613026 
L 152.130641 -169.869266 
L 153.472027 -169.125505 
L 154.631836 -168.381744 
L 155.632143 -167.637984 
L 156.502518 -166.894223 
L 157.278143 -166.150462 
L 157.996992 -165.406702 
L 158.695899 -164.662941 
L 159.405648 -163.91918 
L 160.145614 -163.17542 
L 160.918809 -162.431659 
L 161.708465 -161.687898 
L 162.477387 -160.944138 
L 163.171106 -160.200377 
L 163.725122 -159.456616 
L 164.075365 -158.712856 
L 164.169562 -157.969095 
L 163.97632 -157.225334 
L 163.48895 -156.481574 
L 162.72272 -155.737813 
L 161.706689 -154.994052 
L 160.473545 -154.250292 
L 159.051576 -153.506531 
L 157.461716 -152.76277 
L 155.719944 -152.01901 
L 153.842664 -151.275249 
L 151.851356 -150.531488 
L 149.773504 -149.787728 
L 147.63902 -149.043967 
L 145.473912 -148.300206 
L 143.294447 -147.556446 
L 141.104867 -146.812685 
L 138.900071 -146.068924 
L 136.67244 -145.325164 
L 134.420274 -144.581403 
L 132.154678 -143.837642 
L 129.902486 -143.093882 
L 127.704279 -142.350121 
L 125.608273 -141.60636 
L 123.662041 -140.8626 
L 121.904512 -140.118839 
L 120.360273 -139.375078 
L 119.037375 -138.631318 
L 117.928685 -137.887557 
L 117.015953 -137.143796 
L 116.275142 -136.400036 
L 115.681484 -135.656275 
L 115.213029 -134.912514 
L 114.852094 -134.168754 
L 114.58469 -133.424993 
L 114.398632 -132.681232 
L 114.281308 -131.937471 
L 114.218097 -131.193711 
L 114.192067 -130.44995 
L 114.185083 -129.706189 
L 114.179959 -128.962429 
L 114.162914 -128.218668 
L 114.125519 -127.474907 
L 114.065498 -126.731147 
L 113.986162 -125.987386 
L 113.894717 -125.243625 
L 113.799987 -124.499865 
L 113.71024 -123.756104 
L 113.631631 -123.012343 
L 113.567519 -122.268583 
L 113.518596 -121.524822 
z
" id="m89cefc51af" style="stroke:#464646;stroke-width:3;"/>
    </defs>
    <g clip-path="url(#p2c295e9855)">
     <use style="fill:#ea96a3;stroke:#464646;stroke-width:3;" x="0" xlink:href="#m89cefc51af" y="288"/>
    </g>
   </g>
   <g id="PolyCollection_2">
    <defs>
     <path d="M 240.445737 -132.877392 
L 240.126138 -132.877392 
L 239.970496 -133.859252 
L 239.703263 -134.841111 
L 239.276787 -135.822971 
L 238.643483 -136.804831 
L 237.766902 -137.786691 
L 236.632554 -138.768551 
L 235.252857 -139.75041 
L 233.661313 -140.73227 
L 231.895074 -141.71413 
L 229.971008 -142.69599 
L 227.865293 -143.67785 
L 225.507646 -144.65971 
L 222.797607 -145.641569 
L 219.642346 -146.623429 
L 216.005557 -147.605289 
L 211.948742 -148.587149 
L 207.644842 -149.569009 
L 203.353255 -150.550868 
L 199.362481 -151.532728 
L 195.922911 -152.514588 
L 193.197257 -153.496448 
L 191.246286 -154.478308 
L 190.049116 -155.460168 
L 189.541687 -156.442027 
L 189.651986 -157.423887 
L 190.316581 -158.405747 
L 191.475335 -159.387607 
L 193.053497 -160.369467 
L 194.947583 -161.351326 
L 197.029612 -162.333186 
L 199.173026 -163.315046 
L 201.28847 -164.296906 
L 203.348255 -165.278766 
L 205.3825 -166.260626 
L 207.446569 -167.242485 
L 209.577845 -168.224345 
L 211.767267 -169.206205 
L 213.961814 -170.188065 
L 216.094389 -171.169925 
L 218.120924 -172.151784 
L 220.04164 -173.133644 
L 221.89503 -174.115504 
L 223.730378 -175.097364 
L 225.576266 -176.079224 
L 227.422559 -177.061084 
L 229.223825 -178.042943 
L 230.919709 -179.024803 
L 232.459578 -180.006663 
L 233.81834 -180.988523 
L 234.997012 -181.970383 
L 236.011078 -182.952242 
L 236.87625 -183.934102 
L 237.601065 -184.915962 
L 238.189549 -185.897822 
L 238.649592 -186.879682 
L 238.999218 -187.861542 
L 239.265588 -188.843401 
L 239.477543 -189.825261 
L 239.657009 -190.807121 
L 239.814624 -191.788981 
L 239.951297 -192.770841 
L 240.063523 -193.7527 
L 240.148665 -194.73456 
L 240.207657 -195.71642 
L 240.244819 -196.69828 
L 240.26608 -197.68014 
L 240.27713 -198.662 
L 240.282352 -199.643859 
L 240.284598 -200.625719 
L 240.285479 -201.607579 
L 240.285793 -202.589439 
L 240.285896 -203.571299 
L 240.285926 -204.553158 
L 240.285935 -205.535018 
L 240.285935 -206.516878 
L 240.285931 -207.498738 
L 240.285912 -208.480598 
L 240.285845 -209.462458 
L 240.285634 -210.444317 
L 240.285023 -211.426177 
L 240.283411 -212.408037 
L 240.279543 -213.389897 
L 240.271095 -214.371757 
L 240.254347 -215.353617 
L 240.224287 -216.335476 
L 240.175621 -217.317336 
L 240.104938 -218.299196 
L 240.013636 -219.281056 
L 239.910313 -220.262916 
L 239.810832 -221.244775 
L 239.734927 -222.226635 
L 239.699985 -223.208495 
L 239.714594 -224.190355 
L 239.775121 -225.172215 
L 239.867177 -226.154075 
L 239.971164 -227.135934 
L 240.068985 -228.117794 
L 240.148829 -229.099654 
L 240.206487 -230.081514 
L 240.365388 -230.081514 
L 240.365388 -230.081514 
L 240.423046 -229.099654 
L 240.50289 -228.117794 
L 240.600711 -227.135934 
L 240.704698 -226.154075 
L 240.796754 -225.172215 
L 240.857281 -224.190355 
L 240.87189 -223.208495 
L 240.836948 -222.226635 
L 240.761043 -221.244775 
L 240.661562 -220.262916 
L 240.558239 -219.281056 
L 240.466937 -218.299196 
L 240.396254 -217.317336 
L 240.347588 -216.335476 
L 240.317528 -215.353617 
L 240.30078 -214.371757 
L 240.292332 -213.389897 
L 240.288464 -212.408037 
L 240.286852 -211.426177 
L 240.286241 -210.444317 
L 240.28603 -209.462458 
L 240.285963 -208.480598 
L 240.285944 -207.498738 
L 240.28594 -206.516878 
L 240.28594 -205.535018 
L 240.285949 -204.553158 
L 240.285979 -203.571299 
L 240.286082 -202.589439 
L 240.286396 -201.607579 
L 240.287277 -200.625719 
L 240.289523 -199.643859 
L 240.294745 -198.662 
L 240.305795 -197.68014 
L 240.327056 -196.69828 
L 240.364218 -195.71642 
L 240.42321 -194.73456 
L 240.508352 -193.7527 
L 240.620578 -192.770841 
L 240.757251 -191.788981 
L 240.914866 -190.807121 
L 241.094332 -189.825261 
L 241.306287 -188.843401 
L 241.572657 -187.861542 
L 241.922283 -186.879682 
L 242.382326 -185.897822 
L 242.97081 -184.915962 
L 243.695625 -183.934102 
L 244.560797 -182.952242 
L 245.574863 -181.970383 
L 246.753535 -180.988523 
L 248.112297 -180.006663 
L 249.652166 -179.024803 
L 251.34805 -178.042943 
L 253.149316 -177.061084 
L 254.995609 -176.079224 
L 256.841497 -175.097364 
L 258.676845 -174.115504 
L 260.530235 -173.133644 
L 262.450951 -172.151784 
L 264.477486 -171.169925 
L 266.610061 -170.188065 
L 268.804608 -169.206205 
L 270.99403 -168.224345 
L 273.125306 -167.242485 
L 275.189375 -166.260626 
L 277.22362 -165.278766 
L 279.283405 -164.296906 
L 281.398849 -163.315046 
L 283.542263 -162.333186 
L 285.624292 -161.351326 
L 287.518378 -160.369467 
L 289.09654 -159.387607 
L 290.255294 -158.405747 
L 290.919889 -157.423887 
L 291.030187 -156.442027 
L 290.522759 -155.460168 
L 289.325589 -154.478308 
L 287.374618 -153.496448 
L 284.648964 -152.514588 
L 281.209394 -151.532728 
L 277.21862 -150.550868 
L 272.927033 -149.569009 
L 268.623133 -148.587149 
L 264.566318 -147.605289 
L 260.929529 -146.623429 
L 257.774268 -145.641569 
L 255.064229 -144.65971 
L 252.706582 -143.67785 
L 250.600867 -142.69599 
L 248.676801 -141.71413 
L 246.910562 -140.73227 
L 245.319018 -139.75041 
L 243.939321 -138.768551 
L 242.804973 -137.786691 
L 241.928392 -136.804831 
L 241.295088 -135.822971 
L 240.868612 -134.841111 
L 240.601379 -133.859252 
L 240.445737 -132.877392 
z
" id="mb820ce62b5" style="stroke:#464646;stroke-width:3;"/>
    </defs>
    <g clip-path="url(#p2c295e9855)">
     <use style="fill:#ca984c;stroke:#464646;stroke-width:3;" x="0" xlink:href="#mb820ce62b5" y="288"/>
    </g>
   </g>
   <g id="PolyCollection_3">
    <defs>
     <path d="M 367.217112 -41.784744 
L 367.076013 -41.784744 
L 366.991565 -43.259997 
L 366.86659 -44.735249 
L 366.730773 -46.210502 
L 366.638876 -47.685754 
L 366.6369 -49.161007 
L 366.725898 -50.636259 
L 366.861098 -52.111511 
L 366.987292 -53.586764 
L 367.073502 -55.062016 
L 367.119008 -56.537269 
L 367.138018 -58.012521 
L 367.144384 -59.487774 
L 367.146106 -60.963026 
L 367.146484 -62.438279 
L 367.146551 -63.913531 
L 367.146561 -65.388783 
L 367.146562 -66.864036 
L 367.146562 -68.339288 
L 367.146562 -69.814541 
L 367.146562 -71.289793 
L 367.146562 -72.765046 
L 367.146562 -74.240298 
L 367.146562 -75.715551 
L 367.146562 -77.190803 
L 367.146562 -78.666055 
L 367.146562 -80.141308 
L 367.146562 -81.61656 
L 367.146562 -83.091813 
L 367.146562 -84.567065 
L 367.146562 -86.042318 
L 367.146562 -87.51757 
L 367.146562 -88.992823 
L 367.146562 -90.468075 
L 367.146562 -91.943327 
L 367.146562 -93.41858 
L 367.146562 -94.893832 
L 367.146562 -96.369085 
L 367.146562 -97.844337 
L 367.146562 -99.31959 
L 367.146562 -100.794842 
L 367.146562 -102.270095 
L 367.146562 -103.745347 
L 367.146562 -105.220599 
L 367.146562 -106.695852 
L 367.146562 -108.171104 
L 367.146562 -109.646357 
L 367.146562 -111.121609 
L 367.146562 -112.596862 
L 367.146562 -114.072114 
L 367.146562 -115.547367 
L 367.146562 -117.022619 
L 367.146562 -118.497871 
L 367.146562 -119.973124 
L 367.146562 -121.448376 
L 367.146562 -122.923629 
L 367.146562 -124.398881 
L 367.146561 -125.874134 
L 367.146552 -127.349386 
L 367.14648 -128.824639 
L 367.146041 -130.299891 
L 367.143828 -131.775143 
L 367.134658 -133.250396 
L 367.103277 -134.725648 
L 367.014053 -136.200901 
L 366.800853 -137.676153 
L 366.36472 -139.151406 
L 365.58036 -140.626658 
L 364.301025 -142.101911 
L 362.356709 -143.577163 
L 359.56053 -145.052415 
L 355.739671 -146.527668 
L 350.799021 -148.00292 
L 344.830822 -149.478173 
L 338.231328 -150.953425 
L 331.675462 -152.428678 
L 325.872717 -153.90393 
L 321.309977 -155.379183 
L 318.216908 -156.854435 
L 316.639135 -158.329687 
L 316.402312 -159.80494 
L 317.113305 -161.280192 
L 318.431695 -162.755445 
L 320.373302 -164.230697 
L 323.221046 -165.70595 
L 327.140597 -167.181202 
L 331.9937 -168.656455 
L 337.488343 -170.131707 
L 343.328629 -171.606959 
L 349.154318 -173.082212 
L 354.470598 -174.557464 
L 358.786994 -176.032717 
L 361.861683 -177.507969 
L 363.803767 -178.983222 
L 364.955756 -180.458474 
L 365.678292 -181.933727 
L 366.198163 -183.408979 
L 366.5926 -184.884231 
L 366.866453 -186.359484 
L 367.026893 -187.834736 
L 367.266232 -187.834736 
L 367.266232 -187.834736 
L 367.426672 -186.359484 
L 367.700525 -184.884231 
L 368.094962 -183.408979 
L 368.614833 -181.933727 
L 369.337369 -180.458474 
L 370.489358 -178.983222 
L 372.431442 -177.507969 
L 375.506131 -176.032717 
L 379.822527 -174.557464 
L 385.138807 -173.082212 
L 390.964496 -171.606959 
L 396.804782 -170.131707 
L 402.299425 -168.656455 
L 407.152528 -167.181202 
L 411.072079 -165.70595 
L 413.919823 -164.230697 
L 415.86143 -162.755445 
L 417.17982 -161.280192 
L 417.890812 -159.80494 
L 417.65399 -158.329687 
L 416.076217 -156.854435 
L 412.983148 -155.379183 
L 408.420408 -153.90393 
L 402.617663 -152.428678 
L 396.061797 -150.953425 
L 389.462303 -149.478173 
L 383.494104 -148.00292 
L 378.553454 -146.527668 
L 374.732595 -145.052415 
L 371.936416 -143.577163 
L 369.9921 -142.101911 
L 368.712765 -140.626658 
L 367.928405 -139.151406 
L 367.492272 -137.676153 
L 367.279072 -136.200901 
L 367.189848 -134.725648 
L 367.158467 -133.250396 
L 367.149297 -131.775143 
L 367.147084 -130.299891 
L 367.146645 -128.824639 
L 367.146573 -127.349386 
L 367.146564 -125.874134 
L 367.146563 -124.398881 
L 367.146563 -122.923629 
L 367.146563 -121.448376 
L 367.146563 -119.973124 
L 367.146563 -118.497871 
L 367.146563 -117.022619 
L 367.146562 -115.547367 
L 367.146562 -114.072114 
L 367.146562 -112.596862 
L 367.146562 -111.121609 
L 367.146562 -109.646357 
L 367.146562 -108.171104 
L 367.146562 -106.695852 
L 367.146562 -105.220599 
L 367.146562 -103.745347 
L 367.146562 -102.270095 
L 367.146562 -100.794842 
L 367.146562 -99.31959 
L 367.146562 -97.844337 
L 367.146562 -96.369085 
L 367.146562 -94.893832 
L 367.146562 -93.41858 
L 367.146562 -91.943327 
L 367.146562 -90.468075 
L 367.146562 -88.992823 
L 367.146562 -87.51757 
L 367.146562 -86.042318 
L 367.146562 -84.567065 
L 367.146562 -83.091813 
L 367.146562 -81.61656 
L 367.146562 -80.141308 
L 367.146562 -78.666055 
L 367.146562 -77.190803 
L 367.146562 -75.715551 
L 367.146563 -74.240298 
L 367.146563 -72.765046 
L 367.146563 -71.289793 
L 367.146563 -69.814541 
L 367.146563 -68.339288 
L 367.146563 -66.864036 
L 367.146564 -65.388783 
L 367.146574 -63.913531 
L 367.146641 -62.438279 
L 367.147019 -60.963026 
L 367.148741 -59.487774 
L 367.155107 -58.012521 
L 367.174117 -56.537269 
L 367.219623 -55.062016 
L 367.305833 -53.586764 
L 367.432027 -52.111511 
L 367.567227 -50.636259 
L 367.656225 -49.161007 
L 367.654249 -47.685754 
L 367.562352 -46.210502 
L 367.426535 -44.735249 
L 367.30156 -43.259997 
L 367.217112 -41.784744 
z
" id="m9d9268b91b" style="stroke:#464646;stroke-width:3;"/>
    </defs>
    <g clip-path="url(#p2c295e9855)">
     <use style="fill:#98a246;stroke:#464646;stroke-width:3;" x="0" xlink:href="#m9d9268b91b" y="288"/>
    </g>
   </g>
   <g id="PolyCollection_4">
    <defs>
     <path d="M 494.111187 -125.027402 
L 493.903188 -125.027402 
L 493.821113 -126.003563 
L 493.700028 -126.979724 
L 493.538873 -127.955885 
L 493.346525 -128.932046 
L 493.142168 -129.908207 
L 492.950221 -130.884368 
L 492.789999 -131.860528 
L 492.663483 -132.836689 
L 492.546551 -133.81285 
L 492.388157 -134.789011 
L 492.11847 -135.765172 
L 491.662942 -136.741333 
L 490.957317 -137.717494 
L 489.959247 -138.693654 
L 488.65425 -139.669815 
L 487.055201 -140.645976 
L 485.195268 -141.622137 
L 483.115682 -142.598298 
L 480.852843 -143.574459 
L 478.431887 -144.55062 
L 475.872172 -145.52678 
L 473.20269 -146.502941 
L 470.476839 -147.479102 
L 467.773702 -148.455263 
L 465.180358 -149.431424 
L 462.761892 -150.407585 
L 460.533642 -151.383746 
L 458.449273 -152.359906 
L 456.41174 -153.336067 
L 454.307397 -154.312228 
L 452.05755 -155.288389 
L 449.674328 -156.26455 
L 447.299924 -157.240711 
L 445.206859 -158.216872 
L 443.74769 -159.193032 
L 443.262937 -160.169193 
L 443.975338 -161.145354 
L 445.906747 -162.121515 
L 448.847974 -163.097676 
L 452.395263 -164.073837 
L 456.046072 -165.049998 
L 459.327372 -166.026158 
L 461.917519 -167.002319 
L 463.722541 -167.97848 
L 464.881385 -168.954641 
L 465.699048 -169.930802 
L 466.533325 -170.906963 
L 467.678721 -171.883124 
L 469.290409 -172.859284 
L 471.370408 -173.835445 
L 473.807782 -174.811606 
L 476.44175 -175.787767 
L 479.114199 -176.763928 
L 481.694781 -177.740089 
L 484.083341 -178.71625 
L 486.205351 -179.69241 
L 488.011955 -180.668571 
L 489.484903 -181.644732 
L 490.63922 -182.620893 
L 491.517646 -183.597054 
L 492.177334 -184.573215 
L 492.674616 -185.549376 
L 493.054213 -186.525536 
L 493.345881 -187.501697 
L 493.567331 -188.477858 
L 493.729785 -189.454019 
L 493.84273 -190.43018 
L 493.916128 -191.406341 
L 493.960321 -192.382502 
L 493.984842 -193.358662 
L 493.997342 -194.334823 
L 494.003186 -195.310984 
L 494.005689 -196.287145 
L 494.006671 -197.263306 
L 494.007022 -198.239467 
L 494.007132 -199.215628 
L 494.007145 -200.191788 
L 494.007078 -201.167949 
L 494.006845 -202.14411 
L 494.006175 -203.120271 
L 494.004434 -204.096432 
L 494.000316 -205.072593 
L 493.991445 -206.048754 
L 493.974086 -207.024914 
L 493.943306 -208.001075 
L 493.89403 -208.977236 
L 493.823214 -209.953397 
L 493.732652 -210.929558 
L 493.631169 -211.905719 
L 493.534485 -212.88188 
L 493.46176 -213.85804 
L 493.429552 -214.834201 
L 493.445701 -215.810362 
L 493.506238 -216.786523 
L 493.596967 -217.762684 
L 493.698862 -218.738845 
L 493.794486 -219.715006 
L 493.872509 -220.691166 
L 493.928917 -221.667327 
L 494.085458 -221.667327 
L 494.085458 -221.667327 
L 494.141866 -220.691166 
L 494.219889 -219.715006 
L 494.315513 -218.738845 
L 494.417408 -217.762684 
L 494.508137 -216.786523 
L 494.568674 -215.810362 
L 494.584823 -214.834201 
L 494.552615 -213.85804 
L 494.47989 -212.88188 
L 494.383206 -211.905719 
L 494.281723 -210.929558 
L 494.191161 -209.953397 
L 494.120345 -208.977236 
L 494.071069 -208.001075 
L 494.040289 -207.024914 
L 494.02293 -206.048754 
L 494.014059 -205.072593 
L 494.009941 -204.096432 
L 494.0082 -203.120271 
L 494.00753 -202.14411 
L 494.007297 -201.167949 
L 494.00723 -200.191788 
L 494.007243 -199.215628 
L 494.007353 -198.239467 
L 494.007704 -197.263306 
L 494.008686 -196.287145 
L 494.011189 -195.310984 
L 494.017033 -194.334823 
L 494.029533 -193.358662 
L 494.054054 -192.382502 
L 494.098247 -191.406341 
L 494.171645 -190.43018 
L 494.28459 -189.454019 
L 494.447044 -188.477858 
L 494.668494 -187.501697 
L 494.960162 -186.525536 
L 495.339759 -185.549376 
L 495.837041 -184.573215 
L 496.496729 -183.597054 
L 497.375155 -182.620893 
L 498.529472 -181.644732 
L 500.00242 -180.668571 
L 501.809024 -179.69241 
L 503.931034 -178.71625 
L 506.319594 -177.740089 
L 508.900176 -176.763928 
L 511.572625 -175.787767 
L 514.206593 -174.811606 
L 516.643967 -173.835445 
L 518.723966 -172.859284 
L 520.335654 -171.883124 
L 521.48105 -170.906963 
L 522.315327 -169.930802 
L 523.13299 -168.954641 
L 524.291834 -167.97848 
L 526.096856 -167.002319 
L 528.687003 -166.026158 
L 531.968303 -165.049998 
L 535.619112 -164.073837 
L 539.166401 -163.097676 
L 542.107628 -162.121515 
L 544.039037 -161.145354 
L 544.751437 -160.169193 
L 544.266685 -159.193032 
L 542.807516 -158.216872 
L 540.714451 -157.240711 
L 538.340047 -156.26455 
L 535.956825 -155.288389 
L 533.706978 -154.312228 
L 531.602635 -153.336067 
L 529.565102 -152.359906 
L 527.480733 -151.383746 
L 525.252483 -150.407585 
L 522.834017 -149.431424 
L 520.240673 -148.455263 
L 517.537536 -147.479102 
L 514.811685 -146.502941 
L 512.142203 -145.52678 
L 509.582488 -144.55062 
L 507.161532 -143.574459 
L 504.898693 -142.598298 
L 502.819107 -141.622137 
L 500.959174 -140.645976 
L 499.360125 -139.669815 
L 498.055128 -138.693654 
L 497.057058 -137.717494 
L 496.351433 -136.741333 
L 495.895905 -135.765172 
L 495.626218 -134.789011 
L 495.467824 -133.81285 
L 495.350892 -132.836689 
L 495.224376 -131.860528 
L 495.064154 -130.884368 
L 494.872207 -129.908207 
L 494.66785 -128.932046 
L 494.475502 -127.955885 
L 494.314347 -126.979724 
L 494.193262 -126.003563 
L 494.111187 -125.027402 
z
" id="m856b1a5316" style="stroke:#464646;stroke-width:3;"/>
    </defs>
    <g clip-path="url(#p2c295e9855)">
     <use style="fill:#49af72;stroke:#464646;stroke-width:3;" x="0" xlink:href="#m856b1a5316" y="288"/>
    </g>
   </g>
   <g id="PolyCollection_5">
    <defs>
     <path d="M 620.950185 -127.86884 
L 620.78544 -127.86884 
L 620.735765 -128.6904 
L 620.667702 -129.51196 
L 620.580498 -130.33352 
L 620.475681 -131.15508 
L 620.356587 -131.97664 
L 620.226666 -132.798199 
L 620.086722 -133.619759 
L 619.931728 -134.441319 
L 619.748093 -135.262879 
L 619.512107 -136.084439 
L 619.189858 -136.905999 
L 618.738467 -137.727559 
L 618.108409 -138.549118 
L 617.246979 -139.370678 
L 616.103244 -140.192238 
L 614.634667 -141.013798 
L 612.814749 -141.835358 
L 610.639916 -142.656918 
L 608.133403 -143.478477 
L 605.34469 -144.300037 
L 602.344906 -145.121597 
L 599.220342 -145.943157 
L 596.066253 -146.764717 
L 592.981198 -147.586277 
L 590.059681 -148.407836 
L 587.380368 -149.229396 
L 584.990145 -150.050956 
L 582.889529 -150.872516 
L 581.028604 -151.694076 
L 579.320985 -152.515636 
L 577.675557 -153.337195 
L 576.035729 -154.158755 
L 574.40962 -154.980315 
L 572.876607 -155.801875 
L 571.565691 -156.623435 
L 570.614098 -157.444995 
L 570.123562 -158.266554 
L 570.132231 -159.088114 
L 570.612129 -159.909674 
L 571.49032 -160.731234 
L 572.682154 -161.552794 
L 574.12175 -162.374354 
L 575.778417 -163.195913 
L 577.655295 -164.017473 
L 579.77382 -164.839033 
L 582.151771 -165.660593 
L 584.782956 -166.482153 
L 587.624426 -167.303713 
L 590.594128 -168.125272 
L 593.579234 -168.946832 
L 596.45299 -169.768392 
L 599.095946 -170.589952 
L 601.416097 -171.411512 
L 603.362707 -172.233072 
L 604.930522 -173.054631 
L 606.154212 -173.876191 
L 607.095836 -174.697751 
L 607.829742 -175.519311 
L 608.429184 -176.340871 
L 608.957537 -177.162431 
L 609.465031 -177.98399 
L 609.989997 -178.80555 
L 610.562252 -179.62711 
L 611.205768 -180.44867 
L 611.938465 -181.27023 
L 612.768781 -182.09179 
L 613.690713 -182.913349 
L 614.68035 -183.734909 
L 615.696583 -184.556469 
L 616.68694 -185.378029 
L 617.597182 -186.199589 
L 618.38175 -187.021149 
L 619.011924 -187.842708 
L 619.479711 -188.664268 
L 619.797001 -189.485828 
L 619.990934 -190.307388 
L 620.097033 -191.128948 
L 620.151807 -191.950508 
L 620.186248 -192.772068 
L 620.221348 -193.593627 
L 620.266293 -194.415187 
L 620.319483 -195.236747 
L 620.371882 -196.058307 
L 620.4117 -196.879867 
L 620.429144 -197.701427 
L 620.420047 -198.522986 
L 620.387553 -199.344546 
L 620.341549 -200.166106 
L 620.296114 -200.987666 
L 620.265768 -201.809226 
L 620.26164 -202.630786 
L 620.288729 -203.452345 
L 620.345038 -204.273905 
L 620.422751 -205.095465 
L 620.510864 -205.917025 
L 620.598259 -206.738585 
L 620.6762 -207.560145 
L 620.739613 -208.381704 
L 620.787088 -209.203264 
L 620.948537 -209.203264 
L 620.948537 -209.203264 
L 620.996012 -208.381704 
L 621.059425 -207.560145 
L 621.137366 -206.738585 
L 621.224761 -205.917025 
L 621.312874 -205.095465 
L 621.390587 -204.273905 
L 621.446896 -203.452345 
L 621.473985 -202.630786 
L 621.469857 -201.809226 
L 621.439511 -200.987666 
L 621.394076 -200.166106 
L 621.348072 -199.344546 
L 621.315578 -198.522986 
L 621.306481 -197.701427 
L 621.323925 -196.879867 
L 621.363743 -196.058307 
L 621.416142 -195.236747 
L 621.469332 -194.415187 
L 621.514277 -193.593627 
L 621.549377 -192.772068 
L 621.583818 -191.950508 
L 621.638592 -191.128948 
L 621.744691 -190.307388 
L 621.938624 -189.485828 
L 622.255914 -188.664268 
L 622.723701 -187.842708 
L 623.353875 -187.021149 
L 624.138443 -186.199589 
L 625.048685 -185.378029 
L 626.039042 -184.556469 
L 627.055275 -183.734909 
L 628.044912 -182.913349 
L 628.966844 -182.09179 
L 629.79716 -181.27023 
L 630.529857 -180.44867 
L 631.173373 -179.62711 
L 631.745628 -178.80555 
L 632.270594 -177.98399 
L 632.778088 -177.162431 
L 633.306441 -176.340871 
L 633.905883 -175.519311 
L 634.639789 -174.697751 
L 635.581413 -173.876191 
L 636.805103 -173.054631 
L 638.372918 -172.233072 
L 640.319528 -171.411512 
L 642.639679 -170.589952 
L 645.282635 -169.768392 
L 648.156391 -168.946832 
L 651.141497 -168.125272 
L 654.111199 -167.303713 
L 656.952669 -166.482153 
L 659.583854 -165.660593 
L 661.961805 -164.839033 
L 664.08033 -164.017473 
L 665.957208 -163.195913 
L 667.613875 -162.374354 
L 669.053471 -161.552794 
L 670.245305 -160.731234 
L 671.123496 -159.909674 
L 671.603394 -159.088114 
L 671.612062 -158.266554 
L 671.121527 -157.444995 
L 670.169934 -156.623435 
L 668.859018 -155.801875 
L 667.326005 -154.980315 
L 665.699896 -154.158755 
L 664.060068 -153.337195 
L 662.41464 -152.515636 
L 660.707021 -151.694076 
L 658.846096 -150.872516 
L 656.74548 -150.050956 
L 654.355257 -149.229396 
L 651.675944 -148.407836 
L 648.754427 -147.586277 
L 645.669372 -146.764717 
L 642.515283 -145.943157 
L 639.390719 -145.121597 
L 636.390935 -144.300037 
L 633.602222 -143.478477 
L 631.095709 -142.656918 
L 628.920876 -141.835358 
L 627.100958 -141.013798 
L 625.632381 -140.192238 
L 624.488646 -139.370678 
L 623.627216 -138.549118 
L 622.997158 -137.727559 
L 622.545767 -136.905999 
L 622.223518 -136.084439 
L 621.987532 -135.262879 
L 621.803897 -134.441319 
L 621.648903 -133.619759 
L 621.508959 -132.798199 
L 621.379038 -131.97664 
L 621.259944 -131.15508 
L 621.155127 -130.33352 
L 621.067923 -129.51196 
L 620.99986 -128.6904 
L 620.950185 -127.86884 
z
" id="me38b51d772" style="stroke:#464646;stroke-width:3;"/>
    </defs>
    <g clip-path="url(#p2c295e9855)">
     <use style="fill:#4baba4;stroke:#464646;stroke-width:3;" x="0" xlink:href="#me38b51d772" y="288"/>
    </g>
   </g>
   <g id="PolyCollection_6">
    <defs>
     <path d="M 747.873454 -131.956299 
L 747.583421 -131.956299 
L 747.47366 -132.833744 
L 747.304086 -133.711189 
L 747.055427 -134.588634 
L 746.706731 -135.466079 
L 746.234963 -136.343524 
L 745.613567 -137.220969 
L 744.810872 -138.098414 
L 743.790155 -138.975859 
L 742.513238 -139.853304 
L 740.948189 -140.730749 
L 739.079277 -141.608194 
L 736.915177 -142.485639 
L 734.490958 -143.363084 
L 731.86159 -144.240529 
L 729.088829 -145.117974 
L 726.227199 -145.995419 
L 723.315822 -146.872863 
L 720.379741 -147.750308 
L 717.438695 -148.627753 
L 714.516776 -149.505198 
L 711.646598 -150.382643 
L 708.866932 -151.260088 
L 706.219114 -152.137533 
L 703.749374 -153.014978 
L 701.519029 -153.892423 
L 699.615516 -154.769868 
L 698.151897 -155.647313 
L 697.246263 -156.524758 
L 696.984187 -157.402203 
L 697.379687 -158.279648 
L 698.354439 -159.157093 
L 699.748059 -160.034538 
L 701.358064 -160.911983 
L 702.994898 -161.789428 
L 704.531698 -162.666873 
L 705.931815 -163.544318 
L 707.246332 -164.421763 
L 708.584542 -165.299208 
L 710.068977 -166.176653 
L 711.791171 -167.054098 
L 713.783373 -167.931542 
L 716.014566 -168.808987 
L 718.408615 -169.686432 
L 720.873059 -170.563877 
L 723.32411 -171.441322 
L 725.698448 -172.318767 
L 727.951737 -173.196212 
L 730.051204 -174.073657 
L 731.970839 -174.951102 
L 733.69321 -175.828547 
L 735.215731 -176.705992 
L 736.555655 -177.583437 
L 737.748849 -178.460882 
L 738.841112 -179.338327 
L 739.874971 -180.215772 
L 740.877204 -181.093217 
L 741.852025 -181.970662 
L 742.782327 -182.848107 
L 743.637997 -183.725552 
L 744.387659 -184.602997 
L 745.0094 -185.480442 
L 745.497087 -186.357887 
L 745.861116 -187.235332 
L 746.1246 -188.112776 
L 746.317152 -188.990221 
L 746.468487 -189.867666 
L 746.603311 -190.745111 
L 746.738174 -191.622556 
L 746.880418 -192.500001 
L 747.02907 -193.377446 
L 747.177328 -194.254891 
L 747.315928 -195.132336 
L 747.436449 -196.009781 
L 747.533632 -196.887226 
L 747.606217 -197.764671 
L 747.656379 -198.642116 
L 747.688335 -199.519561 
L 747.706777 -200.397006 
L 747.715632 -201.274451 
L 747.717303 -202.151896 
L 747.71235 -203.029341 
L 747.699489 -203.906786 
L 747.67591 -204.784231 
L 747.638021 -205.661676 
L 747.582731 -206.539121 
L 747.509201 -207.416566 
L 747.4206 -208.294011 
L 747.325106 -209.171455 
L 747.235353 -210.0489 
L 747.165967 -210.926345 
L 747.129755 -211.80379 
L 747.133856 -212.681235 
L 747.177446 -213.55868 
L 747.252011 -214.436125 
L 747.344054 -215.31357 
L 747.439068 -216.191015 
L 747.525175 -217.06846 
L 747.595214 -217.945905 
L 747.646963 -218.82335 
L 747.809912 -218.82335 
L 747.809912 -218.82335 
L 747.861661 -217.945905 
L 747.9317 -217.06846 
L 748.017807 -216.191015 
L 748.112821 -215.31357 
L 748.204864 -214.436125 
L 748.279429 -213.55868 
L 748.323019 -212.681235 
L 748.32712 -211.80379 
L 748.290908 -210.926345 
L 748.221522 -210.0489 
L 748.131769 -209.171455 
L 748.036275 -208.294011 
L 747.947674 -207.416566 
L 747.874144 -206.539121 
L 747.818854 -205.661676 
L 747.780965 -204.784231 
L 747.757386 -203.906786 
L 747.744525 -203.029341 
L 747.739572 -202.151896 
L 747.741243 -201.274451 
L 747.750098 -200.397006 
L 747.76854 -199.519561 
L 747.800496 -198.642116 
L 747.850658 -197.764671 
L 747.923243 -196.887226 
L 748.020426 -196.009781 
L 748.140947 -195.132336 
L 748.279547 -194.254891 
L 748.427805 -193.377446 
L 748.576457 -192.500001 
L 748.718701 -191.622556 
L 748.853564 -190.745111 
L 748.988388 -189.867666 
L 749.139723 -188.990221 
L 749.332275 -188.112776 
L 749.595759 -187.235332 
L 749.959788 -186.357887 
L 750.447475 -185.480442 
L 751.069216 -184.602997 
L 751.818878 -183.725552 
L 752.674548 -182.848107 
L 753.60485 -181.970662 
L 754.579671 -181.093217 
L 755.581904 -180.215772 
L 756.615763 -179.338327 
L 757.708026 -178.460882 
L 758.90122 -177.583437 
L 760.241144 -176.705992 
L 761.763665 -175.828547 
L 763.486036 -174.951102 
L 765.405671 -174.073657 
L 767.505138 -173.196212 
L 769.758427 -172.318767 
L 772.132765 -171.441322 
L 774.583816 -170.563877 
L 777.04826 -169.686432 
L 779.442309 -168.808987 
L 781.673502 -167.931542 
L 783.665704 -167.054098 
L 785.387898 -166.176653 
L 786.872333 -165.299208 
L 788.210543 -164.421763 
L 789.52506 -163.544318 
L 790.925177 -162.666873 
L 792.461977 -161.789428 
L 794.098811 -160.911983 
L 795.708816 -160.034538 
L 797.102436 -159.157093 
L 798.077188 -158.279648 
L 798.472688 -157.402203 
L 798.210612 -156.524758 
L 797.304978 -155.647313 
L 795.841359 -154.769868 
L 793.937846 -153.892423 
L 791.707501 -153.014978 
L 789.237761 -152.137533 
L 786.589943 -151.260088 
L 783.810277 -150.382643 
L 780.940099 -149.505198 
L 778.01818 -148.627753 
L 775.077134 -147.750308 
L 772.141053 -146.872863 
L 769.229676 -145.995419 
L 766.368046 -145.117974 
L 763.595285 -144.240529 
L 760.965917 -143.363084 
L 758.541698 -142.485639 
L 756.377598 -141.608194 
L 754.508686 -140.730749 
L 752.943637 -139.853304 
L 751.66672 -138.975859 
L 750.646003 -138.098414 
L 749.843308 -137.220969 
L 749.221912 -136.343524 
L 748.750144 -135.466079 
L 748.401448 -134.588634 
L 748.152789 -133.711189 
L 747.983215 -132.833744 
L 747.873454 -131.956299 
z
" id="m9cdc2b449e" style="stroke:#464646;stroke-width:3;"/>
    </defs>
    <g clip-path="url(#p2c295e9855)">
     <use style="fill:#53accd;stroke:#464646;stroke-width:3;" x="0" xlink:href="#m9cdc2b449e" y="288"/>
    </g>
   </g>
   <g id="PolyCollection_7">
    <defs>
     <path d="M 874.742536 -132.630742 
L 874.435589 -132.630742 
L 874.292773 -133.656109 
L 874.054787 -134.681477 
L 873.682945 -135.706844 
L 873.133662 -136.732212 
L 872.361912 -137.75758 
L 871.328644 -138.782947 
L 870.01357 -139.808315 
L 868.429942 -140.833682 
L 866.631143 -141.85905 
L 864.69733 -142.884417 
L 862.69988 -143.909785 
L 860.658473 -144.935153 
L 858.517218 -145.96052 
L 856.16 -146.985888 
L 853.462725 -148.011255 
L 850.356887 -149.036623 
L 846.871505 -150.06199 
L 843.133168 -151.087358 
L 839.32749 -152.112726 
L 835.64544 -153.138093 
L 832.24468 -154.163461 
L 829.245704 -155.188828 
L 826.759638 -156.214196 
L 824.921658 -157.239563 
L 823.897153 -158.264931 
L 823.844812 -159.290298 
L 824.851798 -160.315666 
L 826.878378 -161.341034 
L 829.745875 -162.366401 
L 833.175821 -163.391769 
L 836.859652 -164.417136 
L 840.526196 -165.442504 
L 843.982777 -166.467871 
L 847.12476 -167.493239 
L 849.92347 -168.518607 
L 852.405474 -169.543974 
L 854.629653 -170.569342 
L 856.66189 -171.594709 
L 858.548308 -172.620077 
L 860.295502 -173.645444 
L 861.870496 -174.670812 
L 863.226041 -175.696179 
L 864.340742 -176.721547 
L 865.250513 -177.746915 
L 866.049814 -178.772282 
L 866.858515 -179.79765 
L 867.771531 -180.823017 
L 868.818846 -181.848385 
L 869.956493 -182.873752 
L 871.090284 -183.89912 
L 872.116595 -184.924488 
L 872.958749 -185.949855 
L 873.584429 -186.975223 
L 874.002374 -188.00059 
L 874.24648 -189.025958 
L 874.358358 -190.051325 
L 874.376088 -191.076693 
L 874.331233 -192.102061 
L 874.251362 -193.127428 
L 874.163218 -194.152796 
L 874.0926 -195.178163 
L 874.060176 -196.203531 
L 874.075865 -197.228898 
L 874.135881 -198.254266 
L 874.224962 -199.279633 
L 874.322928 -200.305001 
L 874.41209 -201.330369 
L 874.482002 -202.355736 
L 874.53014 -203.381104 
L 874.559561 -204.406471 
L 874.575625 -205.431839 
L 874.583494 -206.457206 
L 874.586963 -207.482574 
L 874.588342 -208.507942 
L 874.588838 -209.533309 
L 874.588997 -210.558677 
L 874.58904 -211.584044 
L 874.589033 -212.609412 
L 874.588966 -213.634779 
L 874.588734 -214.660147 
L 874.588042 -215.685515 
L 874.586175 -216.710882 
L 874.581628 -217.73625 
L 874.571651 -218.761617 
L 874.551965 -219.786985 
L 874.517153 -220.812352 
L 874.462257 -221.83772 
L 874.385633 -222.863087 
L 874.292162 -223.888455 
L 874.194852 -224.913823 
L 874.112888 -225.93919 
L 874.065794 -226.964558 
L 874.06594 -227.989925 
L 874.113286 -229.015293 
L 874.195401 -230.04066 
L 874.29274 -231.066028 
L 874.386142 -232.091396 
L 874.462645 -233.116763 
L 874.517413 -234.142131 
L 874.660712 -234.142131 
L 874.660712 -234.142131 
L 874.71548 -233.116763 
L 874.791983 -232.091396 
L 874.885385 -231.066028 
L 874.982724 -230.04066 
L 875.064839 -229.015293 
L 875.112185 -227.989925 
L 875.112331 -226.964558 
L 875.065237 -225.93919 
L 874.983273 -224.913823 
L 874.885963 -223.888455 
L 874.792492 -222.863087 
L 874.715868 -221.83772 
L 874.660972 -220.812352 
L 874.62616 -219.786985 
L 874.606474 -218.761617 
L 874.596497 -217.73625 
L 874.59195 -216.710882 
L 874.590083 -215.685515 
L 874.589391 -214.660147 
L 874.589159 -213.634779 
L 874.589092 -212.609412 
L 874.589085 -211.584044 
L 874.589128 -210.558677 
L 874.589287 -209.533309 
L 874.589783 -208.507942 
L 874.591162 -207.482574 
L 874.594631 -206.457206 
L 874.6025 -205.431839 
L 874.618564 -204.406471 
L 874.647985 -203.381104 
L 874.696123 -202.355736 
L 874.766035 -201.330369 
L 874.855197 -200.305001 
L 874.953163 -199.279633 
L 875.042244 -198.254266 
L 875.10226 -197.228898 
L 875.117949 -196.203531 
L 875.085525 -195.178163 
L 875.014907 -194.152796 
L 874.926763 -193.127428 
L 874.846892 -192.102061 
L 874.802037 -191.076693 
L 874.819767 -190.051325 
L 874.931645 -189.025958 
L 875.175751 -188.00059 
L 875.593696 -186.975223 
L 876.219376 -185.949855 
L 877.06153 -184.924488 
L 878.087841 -183.89912 
L 879.221632 -182.873752 
L 880.359279 -181.848385 
L 881.406594 -180.823017 
L 882.31961 -179.79765 
L 883.128311 -178.772282 
L 883.927612 -177.746915 
L 884.837383 -176.721547 
L 885.952084 -175.696179 
L 887.307629 -174.670812 
L 888.882623 -173.645444 
L 890.629817 -172.620077 
L 892.516235 -171.594709 
L 894.548472 -170.569342 
L 896.772651 -169.543974 
L 899.254655 -168.518607 
L 902.053365 -167.493239 
L 905.195348 -166.467871 
L 908.651929 -165.442504 
L 912.318473 -164.417136 
L 916.002304 -163.391769 
L 919.43225 -162.366401 
L 922.299747 -161.341034 
L 924.326327 -160.315666 
L 925.333312 -159.290298 
L 925.280972 -158.264931 
L 924.256467 -157.239563 
L 922.418487 -156.214196 
L 919.932421 -155.188828 
L 916.933445 -154.163461 
L 913.532685 -153.138093 
L 909.850635 -152.112726 
L 906.044957 -151.087358 
L 902.30662 -150.06199 
L 898.821238 -149.036623 
L 895.7154 -148.011255 
L 893.018125 -146.985888 
L 890.660907 -145.96052 
L 888.519652 -144.935153 
L 886.478245 -143.909785 
L 884.480795 -142.884417 
L 882.546982 -141.85905 
L 880.748183 -140.833682 
L 879.164555 -139.808315 
L 877.849481 -138.782947 
L 876.816213 -137.75758 
L 876.044463 -136.732212 
L 875.49518 -135.706844 
L 875.123338 -134.681477 
L 874.885352 -133.656109 
L 874.742536 -132.630742 
z
" id="m79f401d256" style="stroke:#464646;stroke-width:3;"/>
    </defs>
    <g clip-path="url(#p2c295e9855)">
     <use style="fill:#b6a8eb;stroke:#464646;stroke-width:3;" x="0" xlink:href="#m79f401d256" y="288"/>
    </g>
   </g>
   <g id="PolyCollection_8">
    <defs>
     <path d="M 1001.535529 -130.167707 
L 1001.363846 -130.167707 
L 1001.298806 -131.079721 
L 1001.197678 -131.991735 
L 1001.046399 -132.903749 
L 1000.825787 -133.815763 
L 1000.509006 -134.727777 
L 1000.059845 -135.639792 
L 999.434407 -136.551806 
L 998.588515 -137.46382 
L 997.490711 -138.375834 
L 996.136804 -139.287848 
L 994.558841 -140.199862 
L 992.82177 -141.111877 
L 991.005969 -142.023891 
L 989.180978 -142.935905 
L 987.381221 -143.847919 
L 985.594518 -144.759933 
L 983.768551 -145.671947 
L 981.832053 -146.583962 
L 979.72097 -147.495976 
L 977.398469 -148.40799 
L 974.861856 -149.320004 
L 972.136858 -150.232018 
L 969.266278 -151.144032 
L 966.302063 -152.056047 
L 963.3062 -152.968061 
L 960.358916 -153.880075 
L 957.566964 -154.792089 
L 955.064055 -155.704103 
L 952.999589 -156.616117 
L 951.517692 -157.528131 
L 950.732393 -158.440146 
L 950.705437 -159.35216 
L 951.431775 -160.264174 
L 952.836066 -161.176188 
L 954.782255 -162.088202 
L 957.096611 -163.000216 
L 959.601602 -163.912231 
L 962.1532 -164.824245 
L 964.669892 -165.736259 
L 967.141129 -166.648273 
L 969.609279 -167.560287 
L 972.130769 -168.472301 
L 974.733062 -169.384316 
L 977.387063 -170.29633 
L 980.006988 -171.208344 
L 982.476111 -172.120358 
L 984.685182 -173.032372 
L 986.56667 -173.944386 
L 988.112344 -174.856401 
L 989.370103 -175.768415 
L 990.423865 -176.680429 
L 991.365307 -177.592443 
L 992.267734 -178.504457 
L 993.170386 -179.416471 
L 994.076835 -180.328485 
L 994.965453 -181.2405 
L 995.805585 -182.152514 
L 996.572122 -183.064528 
L 997.253528 -183.976542 
L 997.852369 -184.888556 
L 998.380641 -185.80057 
L 998.853362 -186.712585 
L 999.283233 -187.624599 
L 999.677663 -188.536613 
L 1000.038214 -189.448627 
L 1000.361897 -190.360641 
L 1000.643543 -191.272655 
L 1000.878465 -192.18467 
L 1001.064655 -193.096684 
L 1001.203916 -194.008698 
L 1001.301701 -194.920712 
L 1001.365905 -195.832726 
L 1001.405208 -196.74474 
L 1001.42759 -197.656755 
L 1001.439422 -198.568769 
L 1001.445197 -199.480783 
L 1001.447724 -200.392797 
L 1001.448508 -201.304811 
L 1001.448088 -202.216825 
L 1001.446211 -203.12884 
L 1001.441809 -204.040854 
L 1001.432843 -204.952868 
L 1001.416196 -205.864882 
L 1001.387879 -206.776896 
L 1001.343841 -207.68891 
L 1001.281496 -208.600924 
L 1001.201698 -209.512939 
L 1001.110402 -210.424953 
L 1001.018964 -211.336967 
L 1000.942309 -212.248981 
L 1000.895104 -213.160995 
L 1000.887213 -214.073009 
L 1000.920341 -214.985024 
L 1000.987436 -215.897038 
L 1001.07513 -216.809052 
L 1001.168071 -217.721066 
L 1001.253216 -218.63308 
L 1001.3225 -219.545094 
L 1001.373289 -220.457109 
L 1001.526086 -220.457109 
L 1001.526086 -220.457109 
L 1001.576875 -219.545094 
L 1001.646159 -218.63308 
L 1001.731304 -217.721066 
L 1001.824245 -216.809052 
L 1001.911939 -215.897038 
L 1001.979034 -214.985024 
L 1002.012162 -214.073009 
L 1002.004271 -213.160995 
L 1001.957066 -212.248981 
L 1001.880411 -211.336967 
L 1001.788973 -210.424953 
L 1001.697677 -209.512939 
L 1001.617879 -208.600924 
L 1001.555534 -207.68891 
L 1001.511496 -206.776896 
L 1001.483179 -205.864882 
L 1001.466532 -204.952868 
L 1001.457566 -204.040854 
L 1001.453164 -203.12884 
L 1001.451287 -202.216825 
L 1001.450867 -201.304811 
L 1001.451651 -200.392797 
L 1001.454178 -199.480783 
L 1001.459953 -198.568769 
L 1001.471785 -197.656755 
L 1001.494167 -196.74474 
L 1001.53347 -195.832726 
L 1001.597674 -194.920712 
L 1001.695459 -194.008698 
L 1001.83472 -193.096684 
L 1002.02091 -192.18467 
L 1002.255832 -191.272655 
L 1002.537478 -190.360641 
L 1002.861161 -189.448627 
L 1003.221712 -188.536613 
L 1003.616142 -187.624599 
L 1004.046013 -186.712585 
L 1004.518734 -185.80057 
L 1005.047006 -184.888556 
L 1005.645847 -183.976542 
L 1006.327253 -183.064528 
L 1007.09379 -182.152514 
L 1007.933922 -181.2405 
L 1008.82254 -180.328485 
L 1009.728989 -179.416471 
L 1010.631641 -178.504457 
L 1011.534068 -177.592443 
L 1012.47551 -176.680429 
L 1013.529272 -175.768415 
L 1014.787031 -174.856401 
L 1016.332705 -173.944386 
L 1018.214193 -173.032372 
L 1020.423264 -172.120358 
L 1022.892387 -171.208344 
L 1025.512312 -170.29633 
L 1028.166313 -169.384316 
L 1030.768606 -168.472301 
L 1033.290096 -167.560287 
L 1035.758246 -166.648273 
L 1038.229483 -165.736259 
L 1040.746175 -164.824245 
L 1043.297773 -163.912231 
L 1045.802764 -163.000216 
L 1048.11712 -162.088202 
L 1050.063309 -161.176188 
L 1051.4676 -160.264174 
L 1052.193937 -159.35216 
L 1052.166982 -158.440146 
L 1051.381683 -157.528131 
L 1049.899786 -156.616117 
L 1047.83532 -155.704103 
L 1045.332411 -154.792089 
L 1042.540459 -153.880075 
L 1039.593175 -152.968061 
L 1036.597312 -152.056047 
L 1033.633097 -151.144032 
L 1030.762517 -150.232018 
L 1028.037519 -149.320004 
L 1025.500906 -148.40799 
L 1023.178405 -147.495976 
L 1021.067322 -146.583962 
L 1019.130824 -145.671947 
L 1017.304857 -144.759933 
L 1015.518154 -143.847919 
L 1013.718397 -142.935905 
L 1011.893406 -142.023891 
L 1010.077605 -141.111877 
L 1008.340534 -140.199862 
L 1006.762571 -139.287848 
L 1005.408664 -138.375834 
L 1004.31086 -137.46382 
L 1003.464968 -136.551806 
L 1002.83953 -135.639792 
L 1002.390369 -134.727777 
L 1002.073588 -133.815763 
L 1001.852976 -132.903749 
L 1001.701697 -131.991735 
L 1001.600569 -131.079721 
L 1001.535529 -130.167707 
z
" id="m204514ddc2" style="stroke:#464646;stroke-width:3;"/>
    </defs>
    <g clip-path="url(#p2c295e9855)">
     <use style="fill:#e78cd7;stroke:#464646;stroke-width:3;" x="0" xlink:href="#m204514ddc2" y="288"/>
    </g>
   </g>
   <g id="line2d_10">
    <path clip-path="url(#p2c295e9855)" d="M 113.425312 151.813616 
L 113.425312 99.510781 
" style="fill:none;stroke:#464646;stroke-width:3;"/>
   </g>
   <g id="line2d_11">
    <path clip-path="url(#p2c295e9855)" d="M 113.425312 135.243993 
L 113.425312 119.891947 
" style="fill:none;stroke:#464646;stroke-width:9;"/>
   </g>
   <g id="line2d_12">
    <path clip-path="url(#p2c295e9855)" d="M 240.285937 148.454699 
L 240.285937 104.317997 
" style="fill:none;stroke:#464646;stroke-width:3;"/>
   </g>
   <g id="line2d_13">
    <path clip-path="url(#p2c295e9855)" d="M 240.285937 134.570921 
L 240.285937 121.544166 
" style="fill:none;stroke:#464646;stroke-width:9;"/>
   </g>
   <g id="line2d_14">
    <path clip-path="url(#p2c295e9855)" d="M 367.146562 144.653274 
L 367.146562 106.833173 
" style="fill:none;stroke:#464646;stroke-width:3;"/>
   </g>
   <g id="line2d_15">
    <path clip-path="url(#p2c295e9855)" d="M 367.146562 132.963425 
L 367.146562 121.961214 
" style="fill:none;stroke:#464646;stroke-width:9;"/>
   </g>
   <g id="line2d_16">
    <path clip-path="url(#p2c295e9855)" d="M 494.007187 149.259067 
L 494.007187 103.255307 
" style="fill:none;stroke:#464646;stroke-width:3;"/>
   </g>
   <g id="line2d_17">
    <path clip-path="url(#p2c295e9855)" d="M 494.007187 134.338929 
L 494.007187 121.801868 
" style="fill:none;stroke:#464646;stroke-width:9;"/>
   </g>
   <g id="line2d_18">
    <path clip-path="url(#p2c295e9855)" d="M 620.867812 153.46325 
L 620.867812 102.912442 
" style="fill:none;stroke:#464646;stroke-width:3;"/>
   </g>
   <g id="line2d_19">
    <path clip-path="url(#p2c295e9855)" d="M 620.867812 135.477679 
L 620.867812 122.302202 
" style="fill:none;stroke:#464646;stroke-width:9;"/>
   </g>
   <g id="line2d_20">
    <path clip-path="url(#p2c295e9855)" d="M 747.728437 149.375791 
L 747.728437 103.967686 
" style="fill:none;stroke:#464646;stroke-width:3;"/>
   </g>
   <g id="line2d_21">
    <path clip-path="url(#p2c295e9855)" d="M 747.728437 135.197438 
L 747.728437 121.416171 
" style="fill:none;stroke:#464646;stroke-width:9;"/>
   </g>
   <g id="line2d_22">
    <path clip-path="url(#p2c295e9855)" d="M 874.589062 148.701349 
L 874.589062 105.808926 
" style="fill:none;stroke:#464646;stroke-width:3;"/>
   </g>
   <g id="line2d_23">
    <path clip-path="url(#p2c295e9855)" d="M 874.589062 133.935105 
L 874.589062 122.649476 
" style="fill:none;stroke:#464646;stroke-width:9;"/>
   </g>
   <g id="line2d_24">
    <path clip-path="url(#p2c295e9855)" d="M 1001.449687 151.164384 
L 1001.449687 105.107377 
" style="fill:none;stroke:#464646;stroke-width:3;"/>
   </g>
   <g id="line2d_25">
    <path clip-path="url(#p2c295e9855)" d="M 1001.449687 134.276815 
L 1001.449687 122.090898 
" style="fill:none;stroke:#464646;stroke-width:9;"/>
   </g>
   <g id="patch_3">
    <path d="M 49.995 255.833125 
L 49.995 44.24 
" style="fill:none;stroke:#f0f0f0;stroke-linecap:square;stroke-linejoin:miter;stroke-width:3;"/>
   </g>
   <g id="patch_4">
    <path d="M 1064.88 255.833125 
L 1064.88 44.24 
" style="fill:none;stroke:#f0f0f0;stroke-linecap:square;stroke-linejoin:miter;stroke-width:3;"/>
   </g>
   <g id="patch_5">
    <path d="M 49.995 255.833125 
L 1064.88 255.833125 
" style="fill:none;stroke:#f0f0f0;stroke-linecap:square;stroke-linejoin:miter;stroke-width:3;"/>
   </g>
   <g id="patch_6">
    <path d="M 49.995 44.24 
L 1064.88 44.24 
" style="fill:none;stroke:#f0f0f0;stroke-linecap:square;stroke-linejoin:miter;stroke-width:3;"/>
   </g>
   <g id="PathCollection_1">
    <defs>
     <path d="M 0 3 
C 0.795609 3 1.55874 2.683901 2.12132 2.12132 
C 2.683901 1.55874 3 0.795609 3 0 
C 3 -0.795609 2.683901 -1.55874 2.12132 -2.12132 
C 1.55874 -2.683901 0.795609 -3 0 -3 
C -0.795609 -3 -1.55874 -2.683901 -2.12132 -2.12132 
C -2.683901 -1.55874 -3 -0.795609 -3 0 
C -3 0.795609 -2.683901 1.55874 -2.12132 2.12132 
C -1.55874 2.683901 -0.795609 3 0 3 
z
" id="mcf613fdac5" style="stroke:#464646;stroke-width:0.5;"/>
    </defs>
    <g clip-path="url(#p2c295e9855)">
     <use style="fill:#ffffff;stroke:#464646;stroke-width:0.5;" x="113.425312" xlink:href="#mcf613fdac5" y="128.097351"/>
    </g>
   </g>
   <g id="PathCollection_2">
    <g clip-path="url(#p2c295e9855)">
     <use style="fill:#ffffff;stroke:#464646;stroke-width:0.5;" x="240.285937" xlink:href="#mcf613fdac5" y="128.571758"/>
    </g>
   </g>
   <g id="PathCollection_3">
    <g clip-path="url(#p2c295e9855)">
     <use style="fill:#ffffff;stroke:#464646;stroke-width:0.5;" x="367.146562" xlink:href="#mcf613fdac5" y="128.149957"/>
    </g>
   </g>
   <g id="PathCollection_4">
    <g clip-path="url(#p2c295e9855)">
     <use style="fill:#ffffff;stroke:#464646;stroke-width:0.5;" x="494.007187" xlink:href="#mcf613fdac5" y="127.707756"/>
    </g>
   </g>
   <g id="PathCollection_5">
    <g clip-path="url(#p2c295e9855)">
     <use style="fill:#ffffff;stroke:#464646;stroke-width:0.5;" x="620.867812" xlink:href="#mcf613fdac5" y="129.14389"/>
    </g>
   </g>
   <g id="PathCollection_6">
    <g clip-path="url(#p2c295e9855)">
     <use style="fill:#ffffff;stroke:#464646;stroke-width:0.5;" x="747.728437" xlink:href="#mcf613fdac5" y="129.241127"/>
    </g>
   </g>
   <g id="PathCollection_7">
    <g clip-path="url(#p2c295e9855)">
     <use style="fill:#ffffff;stroke:#464646;stroke-width:0.5;" x="874.589062" xlink:href="#mcf613fdac5" y="128.591131"/>
    </g>
   </g>
   <g id="PathCollection_8">
    <g clip-path="url(#p2c295e9855)">
     <use style="fill:#ffffff;stroke:#464646;stroke-width:0.5;" x="1001.449687" xlink:href="#mcf613fdac5" y="128.519689"/>
    </g>
   </g>
  </g>
  <g id="text_18">
   <!-- Violin Plot of all Continuous Variables -->
   <g style="fill:#262626;" transform="translate(416.035547 16.496719)scale(0.15 -0.15)">
    <defs>
     <path d="M 1803 0 
L 28 4581 
L 684 4581 
L 1875 1253 
Q 2019 853 2116 503 
Q 2222 878 2363 1253 
L 3600 4581 
L 4219 4581 
L 2425 0 
L 1803 0 
z
" id="ArialMT-56" transform="scale(0.015625)"/>
     <path d="M 409 0 
L 409 4581 
L 972 4581 
L 972 0 
L 409 0 
z
" id="ArialMT-6c" transform="scale(0.015625)"/>
     <path id="ArialMT-20" transform="scale(0.015625)"/>
     <path d="M 494 0 
L 494 4581 
L 2222 4581 
Q 2678 4581 2919 4538 
Q 3256 4481 3484 4323 
Q 3713 4166 3852 3881 
Q 3991 3597 3991 3256 
Q 3991 2672 3619 2267 
Q 3247 1863 2275 1863 
L 1100 1863 
L 1100 0 
L 494 0 
z
M 1100 2403 
L 2284 2403 
Q 2872 2403 3119 2622 
Q 3366 2841 3366 3238 
Q 3366 3525 3220 3729 
Q 3075 3934 2838 4000 
Q 2684 4041 2272 4041 
L 1100 4041 
L 1100 2403 
z
" id="ArialMT-50" transform="scale(0.015625)"/>
     <path d="M 556 0 
L 556 2881 
L 59 2881 
L 59 3319 
L 556 3319 
L 556 3672 
Q 556 4006 616 4169 
Q 697 4388 901 4523 
Q 1106 4659 1475 4659 
Q 1713 4659 2000 4603 
L 1916 4113 
Q 1741 4144 1584 4144 
Q 1328 4144 1222 4034 
Q 1116 3925 1116 3625 
L 1116 3319 
L 1763 3319 
L 1763 2881 
L 1116 2881 
L 1116 0 
L 556 0 
z
" id="ArialMT-66" transform="scale(0.015625)"/>
     <path d="M 2588 409 
Q 2275 144 1986 34 
Q 1697 -75 1366 -75 
Q 819 -75 525 192 
Q 231 459 231 875 
Q 231 1119 342 1320 
Q 453 1522 633 1644 
Q 813 1766 1038 1828 
Q 1203 1872 1538 1913 
Q 2219 1994 2541 2106 
Q 2544 2222 2544 2253 
Q 2544 2597 2384 2738 
Q 2169 2928 1744 2928 
Q 1347 2928 1158 2789 
Q 969 2650 878 2297 
L 328 2372 
Q 403 2725 575 2942 
Q 747 3159 1072 3276 
Q 1397 3394 1825 3394 
Q 2250 3394 2515 3294 
Q 2781 3194 2906 3042 
Q 3031 2891 3081 2659 
Q 3109 2516 3109 2141 
L 3109 1391 
Q 3109 606 3145 398 
Q 3181 191 3288 0 
L 2700 0 
Q 2613 175 2588 409 
z
M 2541 1666 
Q 2234 1541 1622 1453 
Q 1275 1403 1131 1340 
Q 988 1278 909 1158 
Q 831 1038 831 891 
Q 831 666 1001 516 
Q 1172 366 1500 366 
Q 1825 366 2078 508 
Q 2331 650 2450 897 
Q 2541 1088 2541 1459 
L 2541 1666 
z
" id="ArialMT-61" transform="scale(0.015625)"/>
     <path d="M 2597 0 
L 2597 488 
Q 2209 -75 1544 -75 
Q 1250 -75 995 37 
Q 741 150 617 320 
Q 494 491 444 738 
Q 409 903 409 1263 
L 409 3319 
L 972 3319 
L 972 1478 
Q 972 1038 1006 884 
Q 1059 663 1231 536 
Q 1403 409 1656 409 
Q 1909 409 2131 539 
Q 2353 669 2445 892 
Q 2538 1116 2538 1541 
L 2538 3319 
L 3100 3319 
L 3100 0 
L 2597 0 
z
" id="ArialMT-75" transform="scale(0.015625)"/>
     <path d="M 416 0 
L 416 3319 
L 922 3319 
L 922 2816 
Q 1116 3169 1280 3281 
Q 1444 3394 1641 3394 
Q 1925 3394 2219 3213 
L 2025 2691 
Q 1819 2813 1613 2813 
Q 1428 2813 1281 2702 
Q 1134 2591 1072 2394 
Q 978 2094 978 1738 
L 978 0 
L 416 0 
z
" id="ArialMT-72" transform="scale(0.015625)"/>
    </defs>
    <use xlink:href="#ArialMT-56"/>
    <use x="64.949219" xlink:href="#ArialMT-69"/>
    <use x="87.166016" xlink:href="#ArialMT-6f"/>
    <use x="142.78125" xlink:href="#ArialMT-6c"/>
    <use x="164.998047" xlink:href="#ArialMT-69"/>
    <use x="187.214844" xlink:href="#ArialMT-6e"/>
    <use x="242.830078" xlink:href="#ArialMT-20"/>
    <use x="270.613281" xlink:href="#ArialMT-50"/>
    <use x="337.3125" xlink:href="#ArialMT-6c"/>
    <use x="359.529297" xlink:href="#ArialMT-6f"/>
    <use x="415.144531" xlink:href="#ArialMT-74"/>
    <use x="442.927734" xlink:href="#ArialMT-20"/>
    <use x="470.710938" xlink:href="#ArialMT-6f"/>
    <use x="526.326172" xlink:href="#ArialMT-66"/>
    <use x="554.109375" xlink:href="#ArialMT-20"/>
    <use x="581.892578" xlink:href="#ArialMT-61"/>
    <use x="637.507812" xlink:href="#ArialMT-6c"/>
    <use x="659.724609" xlink:href="#ArialMT-6c"/>
    <use x="681.941406" xlink:href="#ArialMT-20"/>
    <use x="709.724609" xlink:href="#ArialMT-43"/>
    <use x="781.941406" xlink:href="#ArialMT-6f"/>
    <use x="837.556641" xlink:href="#ArialMT-6e"/>
    <use x="893.171875" xlink:href="#ArialMT-74"/>
    <use x="920.955078" xlink:href="#ArialMT-69"/>
    <use x="943.171875" xlink:href="#ArialMT-6e"/>
    <use x="998.787109" xlink:href="#ArialMT-75"/>
    <use x="1054.402344" xlink:href="#ArialMT-6f"/>
    <use x="1110.017578" xlink:href="#ArialMT-75"/>
    <use x="1165.632812" xlink:href="#ArialMT-73"/>
    <use x="1215.632812" xlink:href="#ArialMT-20"/>
    <use x="1243.416016" xlink:href="#ArialMT-56"/>
    <use x="1302.740234" xlink:href="#ArialMT-61"/>
    <use x="1358.355469" xlink:href="#ArialMT-72"/>
    <use x="1391.65625" xlink:href="#ArialMT-69"/>
    <use x="1413.873047" xlink:href="#ArialMT-61"/>
    <use x="1469.488281" xlink:href="#ArialMT-62"/>
    <use x="1525.103516" xlink:href="#ArialMT-6c"/>
    <use x="1547.320312" xlink:href="#ArialMT-65"/>
    <use x="1602.935547" xlink:href="#ArialMT-73"/>
   </g>
  </g>
 </g>
 <defs>
  <clipPath id="p2c295e9855">
   <rect height="211.593125" width="1014.885" x="49.995" y="44.24"/>
  </clipPath>
 </defs>
</svg>
